<svg width="1940" height="343" viewBox="0 0 1940 343" fill="none" xmlns="http://www.w3.org/2000/svg">
<g clip-path="url(#clip0_443_857)">
<rect width="1940" height="343" fill="white"/>
<rect x="-3.8999" width="80.3148" height="20.5514" rx="3" fill="#E14646" fill-opacity="0.3"/>
<path d="M3.75297 14V3.81818H7.19332C7.98877 3.81818 8.64171 3.95407 9.15212 4.22585C9.66254 4.49432 10.0404 4.86387 10.2856 5.33452C10.5309 5.80516 10.6535 6.34044 10.6535 6.94034C10.6535 7.54025 10.5309 8.07221 10.2856 8.53622C10.0404 9.00024 9.6642 9.36482 9.15709 9.62997C8.64999 9.89181 8.00203 10.0227 7.2132 10.0227H4.42911V8.90909H7.17343C7.71699 8.90909 8.15449 8.82955 8.48593 8.67045C8.82068 8.51136 9.06263 8.28598 9.21178 7.99432C9.36424 7.69934 9.44047 7.34801 9.44047 6.94034C9.44047 6.53267 9.36424 6.17637 9.21178 5.87145C9.05932 5.56652 8.81571 5.3312 8.48096 5.16548C8.1462 4.99645 7.70373 4.91193 7.15354 4.91193H4.98593V14H3.75297ZM8.54559 9.42614L11.0513 14H9.61945L7.15354 9.42614H8.54559ZM15.6686 14.1591C14.9328 14.1591 14.2981 13.9967 13.7645 13.6719C13.2342 13.3438 12.8249 12.8864 12.5365 12.2997C12.2515 11.7098 12.109 11.0237 12.109 10.2415C12.109 9.45928 12.2515 8.76989 12.5365 8.1733C12.8249 7.57339 13.2259 7.10606 13.7397 6.77131C14.2567 6.43324 14.8599 6.2642 15.5493 6.2642C15.947 6.2642 16.3398 6.33049 16.7276 6.46307C17.1154 6.59564 17.4684 6.81108 17.7865 7.10938C18.1047 7.40436 18.3583 7.79545 18.5472 8.28267C18.7361 8.76989 18.8306 9.36979 18.8306 10.0824V10.5795H12.9442V9.56534H17.6374C17.6374 9.13447 17.5512 8.75 17.3789 8.41193C17.2098 8.07386 16.9679 7.80705 16.653 7.61151C16.3415 7.41596 15.9736 7.31818 15.5493 7.31818C15.082 7.31818 14.6776 7.43419 14.3362 7.66619C13.9982 7.89489 13.738 8.19318 13.5557 8.56108C13.3734 8.92898 13.2823 9.32339 13.2823 9.74432V10.4205C13.2823 10.9972 13.3817 11.486 13.5806 11.8871C13.7827 12.2848 14.0628 12.5881 14.4208 12.7969C14.7787 13.0024 15.1947 13.1051 15.6686 13.1051C15.9769 13.1051 16.2553 13.062 16.5039 12.9759C16.7558 12.8864 16.9728 12.7538 17.1551 12.5781C17.3374 12.3991 17.4783 12.1771 17.5777 11.9119L18.7112 12.2301C18.5919 12.6146 18.3914 12.9527 18.1097 13.2443C17.828 13.5327 17.48 13.758 17.0657 13.9205C16.6514 14.0795 16.1857 14.1591 15.6686 14.1591ZM23.4989 14.1591C22.8625 14.1591 22.3007 13.9983 21.8135 13.6768C21.3263 13.352 20.9451 12.8946 20.6701 12.3047C20.395 11.7114 20.2574 11.0104 20.2574 10.2017C20.2574 9.39962 20.395 8.7036 20.6701 8.11364C20.9451 7.52367 21.328 7.06794 21.8185 6.74645C22.309 6.42495 22.8758 6.2642 23.5188 6.2642C24.0159 6.2642 24.4087 6.34706 24.697 6.51278C24.9887 6.67519 25.2108 6.8608 25.3632 7.0696C25.519 7.27509 25.64 7.44413 25.7262 7.5767H25.8256V3.81818H26.9989V14H25.8654V12.8267H25.7262C25.64 12.9659 25.5174 13.1416 25.3583 13.3537C25.1992 13.5625 24.9721 13.7498 24.6772 13.9155C24.3822 14.0779 23.9894 14.1591 23.4989 14.1591ZM23.658 13.1051C24.1286 13.1051 24.5264 12.9825 24.8512 12.7372C25.176 12.4886 25.4229 12.1456 25.5919 11.7081C25.761 11.2673 25.8455 10.7585 25.8455 10.1818C25.8455 9.61174 25.7626 9.11293 25.5969 8.68537C25.4312 8.2545 25.1859 7.91974 24.8611 7.68111C24.5363 7.43916 24.1353 7.31818 23.658 7.31818C23.1608 7.31818 22.7465 7.44579 22.4151 7.70099C22.087 7.95289 21.84 8.29593 21.6743 8.73011C21.5119 9.16098 21.4307 9.64489 21.4307 10.1818C21.4307 10.7254 21.5136 11.2192 21.6793 11.6634C21.8483 12.1042 22.0969 12.4555 22.425 12.7173C22.7565 12.9759 23.1675 13.1051 23.658 13.1051ZM36.5692 6.36364V7.35795H32.6118V6.36364H36.5692ZM33.7652 4.53409H34.9385V11.8125C34.9385 12.1439 34.9866 12.3925 35.0827 12.5582C35.1821 12.7206 35.3081 12.83 35.4605 12.8864C35.6163 12.9394 35.7804 12.9659 35.9527 12.9659C36.082 12.9659 36.188 12.9593 36.2709 12.946C36.3538 12.9295 36.4201 12.9162 36.4698 12.9062L36.7084 13.9602C36.6289 13.9901 36.5178 14.0199 36.3753 14.0497C36.2328 14.0829 36.0522 14.0994 35.8334 14.0994C35.502 14.0994 35.1772 14.0282 34.859 13.8857C34.5441 13.7431 34.2823 13.526 34.0735 13.2344C33.868 12.9427 33.7652 12.5748 33.7652 12.1307V4.53409ZM40.5813 14.179C40.0974 14.179 39.6582 14.0878 39.2638 13.9055C38.8694 13.7199 38.5562 13.4531 38.3242 13.1051C38.0922 12.7538 37.9762 12.3295 37.9762 11.8324C37.9762 11.3949 38.0623 11.0402 38.2347 10.7685C38.407 10.4934 38.6374 10.2779 38.9257 10.1222C39.2141 9.96638 39.5323 9.85038 39.8803 9.77415C40.2316 9.6946 40.5846 9.63163 40.9392 9.58523C41.4032 9.52557 41.7794 9.48082 42.0678 9.45099C42.3594 9.41785 42.5716 9.36316 42.7041 9.28693C42.84 9.2107 42.908 9.07812 42.908 8.8892V8.84943C42.908 8.3589 42.7737 7.97775 42.5053 7.70597C42.2401 7.43419 41.8374 7.2983 41.2972 7.2983C40.7371 7.2983 40.2979 7.42093 39.9797 7.66619C39.6615 7.91146 39.4378 8.1733 39.3085 8.4517L38.1949 8.05398C38.3938 7.58996 38.6589 7.22869 38.9904 6.97017C39.3251 6.70833 39.6897 6.52604 40.0841 6.4233C40.4818 6.31723 40.8729 6.2642 41.2574 6.2642C41.5027 6.2642 41.7844 6.29403 42.1026 6.35369C42.4241 6.41004 42.734 6.5277 43.0323 6.70668C43.3339 6.88565 43.5841 7.15578 43.783 7.51705C43.9818 7.87831 44.0813 8.36222 44.0813 8.96875V14H42.908V12.9659H42.8483C42.7688 13.1316 42.6362 13.3089 42.4506 13.4979C42.265 13.6868 42.0181 13.8475 41.7098 13.9801C41.4016 14.1127 41.0254 14.179 40.5813 14.179ZM40.7603 13.125C41.2243 13.125 41.6154 13.0339 41.9335 12.8516C42.255 12.6693 42.497 12.4339 42.6594 12.1456C42.8251 11.8572 42.908 11.554 42.908 11.2358V10.1619C42.8583 10.2216 42.7489 10.2763 42.5799 10.326C42.4141 10.3724 42.2219 10.4138 42.0032 10.4503C41.7877 10.4834 41.5773 10.5133 41.3718 10.5398C41.1696 10.563 41.0055 10.5829 40.8796 10.5994C40.5746 10.6392 40.2896 10.7038 40.0245 10.7933C39.7626 10.8795 39.5505 11.0104 39.3881 11.1861C39.229 11.3584 39.1495 11.5937 39.1495 11.892C39.1495 12.2997 39.3003 12.608 39.6019 12.8168C39.9068 13.0223 40.2929 13.125 40.7603 13.125ZM49.3052 17.0227C48.7384 17.0227 48.2512 16.9498 47.8435 16.804C47.4359 16.6615 47.0961 16.4725 46.8244 16.2372C46.5559 16.0052 46.3421 15.7566 46.183 15.4915L47.1177 14.8352C47.2237 14.9744 47.358 15.1335 47.5204 15.3125C47.6828 15.4948 47.9048 15.6522 48.1866 15.7848C48.4716 15.9207 48.8445 15.9886 49.3052 15.9886C49.9217 15.9886 50.4304 15.8395 50.8315 15.5412C51.2325 15.2429 51.433 14.7756 51.433 14.1392V12.5881H51.3336C51.2474 12.7273 51.1248 12.8996 50.9657 13.1051C50.8099 13.3073 50.5845 13.4879 50.2896 13.647C49.9979 13.8028 49.6035 13.8807 49.1063 13.8807C48.4898 13.8807 47.9363 13.7348 47.4458 13.4432C46.9586 13.1515 46.5725 12.7273 46.2874 12.1705C46.0057 11.6136 45.8648 10.9375 45.8648 10.142C45.8648 9.35985 46.0024 8.67874 46.2775 8.09872C46.5526 7.51539 46.9354 7.06463 47.4259 6.74645C47.9164 6.42495 48.4832 6.2642 49.1262 6.2642C49.6234 6.2642 50.0178 6.34706 50.3094 6.51278C50.6044 6.67519 50.8298 6.8608 50.9856 7.0696C51.1447 7.27509 51.2673 7.44413 51.3535 7.5767H51.4728V6.36364H52.6063V14.2188C52.6063 14.875 52.4572 15.4086 52.1589 15.8196C51.8639 16.2339 51.4662 16.5372 50.9657 16.7294C50.4685 16.925 49.915 17.0227 49.3052 17.0227ZM49.2654 12.8267C49.736 12.8267 50.1338 12.719 50.4586 12.5036C50.7834 12.2881 51.0303 11.9782 51.1994 11.5739C51.3684 11.1695 51.4529 10.6856 51.4529 10.1222C51.4529 9.57197 51.37 9.08641 51.2043 8.66548C51.0386 8.24455 50.7933 7.91477 50.4685 7.67614C50.1437 7.4375 49.7427 7.31818 49.2654 7.31818C48.7682 7.31818 48.3539 7.44413 48.0225 7.69602C47.6944 7.94792 47.4475 8.28598 47.2817 8.71023C47.1193 9.13447 47.0381 9.60511 47.0381 10.1222C47.0381 10.6525 47.121 11.1214 47.2867 11.5291C47.4557 11.9335 47.7043 12.2517 48.0324 12.4837C48.3639 12.7124 48.7749 12.8267 49.2654 12.8267Z" fill="#37352F"/>
<path d="M-4 0H1944V343H-4V0Z" fill="#CCFFE2"/>
<path fill-rule="evenodd" clip-rule="evenodd" d="M1943.55 237.166V343H475.379C535.532 293.689 599.915 248.214 668.419 207.174C1082.63 -40.9782 1540.57 29.3675 1943.55 237.166Z" fill="#FFECEA"/>
<path fill-rule="evenodd" clip-rule="evenodd" d="M1373.87 169.08C1373.93 113.585 1408.92 58.5252 1467.21 46.2886C1518.96 35.4249 1554.8 83.747 1584.16 124.933C1611.76 163.654 1640.07 210.579 1611.16 248.223C1579.64 289.281 1518.29 294.69 1466.96 277.572C1415.17 260.296 1373.82 220.063 1373.87 169.08Z" fill="#0018A4"/>
<path fill-rule="evenodd" clip-rule="evenodd" d="M135.668 64.0355C166.613 63.0843 197.932 81.711 205.784 114.146C212.755 142.942 186.443 163.876 163.996 181.054C142.892 197.204 117.226 213.893 95.7253 198.369C72.2753 181.438 68.1762 147.165 76.8156 118.11C85.5343 88.7876 107.239 64.9093 135.668 64.0355Z" fill="white"/>
<rect x="-4" width="1944" height="100" fill="#0018A4"/>
<path d="M-65.1058 61.344H-51.1658V62H-72.4038L-60.6368 39.532H-70.6818V38.876H-60.2678L-57.6848 33.956H-70.6818V33.3H-50.3868L-62.1538 55.768H-51.1658V56.424H-62.4818L-65.1058 61.344ZM-62.8918 55.768L-54.4048 39.532H-59.8988L-68.3858 55.768H-62.8918ZM-65.8438 61.344L-63.2198 56.424H-68.7138L-71.3378 61.344H-65.8438ZM-56.9468 33.956L-59.5298 38.876H-54.0358L-51.4528 33.956H-56.9468ZM-47.8519 62V40.27H-47.1959V62H-47.8519ZM-41.6199 40.27V62H-42.2759V40.27H-41.6199ZM-42.2759 38.138V31.25H-41.6199V38.138H-42.2759ZM-47.1959 31.25V38.138H-47.8519V31.25H-47.1959ZM-17.9257 40.27V62H-18.5817V55.809C-19.4837 58.146 -21.2467 60.073 -23.5017 61.18V62H-24.1577V61.508C-25.3057 61.959 -26.5357 62.205 -27.8477 62.205C-33.3007 62.205 -37.7697 57.736 -37.7697 52.283V40.27H-37.1137V52.283C-37.1137 57.367 -32.9317 61.549 -27.8477 61.549C-26.5357 61.549 -25.3057 61.262 -24.1577 60.77V54.579C-24.9367 55.809 -26.2897 56.629 -27.8477 56.629C-30.2257 56.629 -32.1937 54.661 -32.1937 52.283V40.27H-31.5377V52.283C-31.5377 54.292 -29.8567 55.973 -27.8477 55.973C-25.8387 55.973 -24.1577 54.292 -24.1577 52.283V40.27H-23.5017V60.442C-20.5907 58.884 -18.5817 55.809 -18.5817 52.283V40.27H-17.9257ZM-14.7226 46.953C-14.7226 42.976 -11.5246 39.778 -7.54759 39.778C-4.59559 39.778 -2.05359 41.582 -0.94659 44.124L-1.56159 44.411C-2.54559 42.074 -4.88259 40.434 -7.54759 40.434C-11.1556 40.434 -14.0666 43.345 -14.0666 46.953C-14.0666 50.028 -11.9756 52.57 -9.10559 53.308L-7.30159 53.759C-6.60459 53.923 -6.11259 54.579 -6.11259 55.317C-6.11259 56.219 -6.80959 56.916 -7.71159 56.916C-8.40859 56.916 -8.98259 56.506 -9.22859 55.85L-8.61359 55.604C-8.49059 55.973 -8.16259 56.26 -7.71159 56.26C-7.17859 56.26 -6.76859 55.85 -6.76859 55.317C-6.76859 54.866 -7.01459 54.497 -7.46559 54.374L-9.31059 53.923C-12.4266 53.144 -14.7226 50.315 -14.7226 46.953ZM-14.3126 58.187L-13.6976 57.9C-12.7136 60.237 -10.4176 61.836 -7.71159 61.836C-4.10359 61.836 -1.19259 58.925 -1.19259 55.317C-1.19259 52.242 -3.28359 49.7 -6.15359 48.962L-7.95759 48.511C-8.69559 48.306 -9.14659 47.691 -9.14659 46.953C-9.14659 46.051 -8.44959 45.354 -7.54759 45.354C-6.85059 45.354 -6.27659 45.805 -6.07159 46.42L-6.64559 46.666C-6.76859 46.297 -7.13759 46.01 -7.54759 46.01C-8.08059 46.01 -8.49059 46.42 -8.49059 46.953C-8.49059 47.404 -8.24459 47.773 -7.79359 47.896L-5.94859 48.347C-2.79159 49.126 -0.536589 51.955 -0.536589 55.317C-0.536589 59.294 -3.73459 62.492 -7.71159 62.492C-10.6636 62.492 -13.2056 60.729 -14.3126 58.187ZM4.52723 40.926H1.28823V40.27H4.52723V33.3H5.18323V40.27H10.1032V33.3H10.7592V40.27H13.9982V40.926H10.7592V45.846H13.9982V46.502H10.7592V62H10.1032V46.502H5.18323V62H4.52723V46.502H1.28823V45.846H4.52723V40.926ZM10.1032 40.926H5.18323V45.846H10.1032V40.926ZM32.479 42.115V60.155C35.226 58.474 37.399 55.071 37.399 51.135C37.399 47.199 35.226 43.796 32.479 42.115ZM26.698 39.778C28.543 39.778 30.265 40.229 31.823 41.008V40.27H32.479V41.377C34.775 42.648 36.538 44.944 37.399 47.322V40.27H38.055V62H37.399V54.907C36.579 57.244 34.775 59.663 32.479 60.934V62H31.823V61.262C30.265 62.041 28.543 62.492 26.698 62.492C20.425 62.492 15.341 57.408 15.341 51.135C15.341 44.862 20.425 39.778 26.698 39.778ZM26.698 61.836C28.543 61.836 30.306 61.385 31.823 60.565V53.841C30.839 55.645 28.912 56.916 26.698 56.916C23.5 56.916 20.917 54.333 20.917 51.135C20.917 47.937 23.5 45.354 26.698 45.354C28.912 45.354 30.839 46.625 31.823 48.47V41.746C30.306 40.926 28.543 40.434 26.698 40.434C20.794 40.434 15.997 45.231 15.997 51.135C15.997 57.039 20.794 61.836 26.698 61.836ZM26.698 56.26C29.568 56.26 31.823 53.964 31.823 51.135C31.823 48.306 29.568 46.01 26.698 46.01C23.869 46.01 21.573 48.306 21.573 51.135C21.573 53.964 23.869 56.26 26.698 56.26ZM42.236 62V40.27H42.892V46.461C43.794 44.124 45.557 42.197 47.812 41.09V40.27H48.468V40.762C49.616 40.311 50.846 40.065 52.158 40.065C57.611 40.065 62.08 44.534 62.08 49.987V62H61.424V49.987C61.424 44.903 57.242 40.721 52.158 40.721C50.846 40.721 49.616 41.008 48.468 41.5V47.691C49.247 46.461 50.6 45.641 52.158 45.641C54.536 45.641 56.504 47.609 56.504 49.987V62H55.848V49.987C55.848 47.978 54.167 46.297 52.158 46.297C50.149 46.297 48.468 47.978 48.468 49.987V62H47.812V41.828C44.901 43.386 42.892 46.461 42.892 49.987V62H42.236ZM64.7091 51.135C64.7091 44.862 69.7931 39.778 76.0661 39.778C77.9111 39.778 79.6331 40.229 81.1911 41.008V31.25H81.8471V41.377C84.1431 42.648 85.9061 44.944 86.7671 47.322V31.25H87.4231V62H86.7671V54.907C85.9471 57.244 84.1431 59.663 81.8471 60.934V62H81.1911V61.262C79.6331 62.041 77.9111 62.492 76.0661 62.492C69.7931 62.492 64.7091 57.408 64.7091 51.135ZM65.3651 51.135C65.3651 57.039 70.1621 61.836 76.0661 61.836C77.9111 61.836 79.6741 61.385 81.1911 60.565V53.841C80.2071 55.645 78.2801 56.916 76.0661 56.916C72.8681 56.916 70.2851 54.333 70.2851 51.135C70.2851 47.937 72.8681 45.354 76.0661 45.354C78.2801 45.354 80.2071 46.625 81.1911 48.47V41.746C79.6741 40.926 77.9111 40.434 76.0661 40.434C70.1621 40.434 65.3651 45.231 65.3651 51.135ZM70.9411 51.135C70.9411 53.964 73.2371 56.26 76.0661 56.26C78.9361 56.26 81.1911 53.964 81.1911 51.135C81.1911 48.306 78.9361 46.01 76.0661 46.01C73.2371 46.01 70.9411 48.306 70.9411 51.135ZM81.8471 42.115V60.155C84.5941 58.474 86.7671 55.071 86.7671 51.135C86.7671 47.199 84.5941 43.796 81.8471 42.115ZM99.5156 41.746C99.5156 36.826 103.534 32.849 108.618 32.849C112.554 32.849 115.875 35.268 117.146 38.671L116.572 38.917C115.383 35.719 112.267 33.423 108.618 33.464C103.944 33.505 100.131 37.154 100.172 41.746C100.213 45.6 102.837 48.88 106.486 49.7L109.438 50.356C110.914 50.684 112.021 52.037 112.021 53.554C112.021 55.399 110.463 56.875 108.495 56.875C106.814 56.875 105.42 55.768 105.051 54.292L105.666 54.005C105.912 55.276 107.06 56.301 108.495 56.26C110.094 56.219 111.324 55.03 111.365 53.554C111.406 52.324 110.504 51.258 109.233 50.971L106.363 50.356C102.345 49.495 99.5156 45.887 99.5156 41.746ZM99.9256 56.629L100.541 56.342C101.689 59.581 104.805 61.877 108.495 61.836C113.169 61.795 116.982 58.146 116.941 53.554C116.9 49.7 114.276 46.42 110.627 45.6L107.675 44.944C106.199 44.616 105.092 43.263 105.092 41.746C105.092 39.901 106.65 38.425 108.618 38.425C110.299 38.425 111.693 39.491 112.021 40.967L111.447 41.254C111.201 39.983 110.012 38.999 108.618 39.04C107.019 39.081 105.789 40.27 105.748 41.746C105.707 42.976 106.609 44.042 107.88 44.329L110.75 44.944C114.768 45.805 117.597 49.413 117.597 53.554C117.597 58.474 113.579 62.451 108.495 62.451C104.518 62.451 101.197 60.032 99.9256 56.629ZM122.402 40.926H119.163V40.27H122.402V33.3H123.058V40.27H127.978V33.3H128.634V40.27H131.873V40.926H128.634V45.846H131.873V46.502H128.634V62H127.978V46.502H123.058V62H122.402V46.502H119.163V45.846H122.402V40.926ZM127.978 40.926H123.058V45.846H127.978V40.926ZM150.354 42.115V60.155C153.101 58.474 155.274 55.071 155.274 51.135C155.274 47.199 153.101 43.796 150.354 42.115ZM144.573 39.778C146.418 39.778 148.14 40.229 149.698 41.008V40.27H150.354V41.377C152.65 42.648 154.413 44.944 155.274 47.322V40.27H155.93V62H155.274V54.907C154.454 57.244 152.65 59.663 150.354 60.934V62H149.698V61.262C148.14 62.041 146.418 62.492 144.573 62.492C138.3 62.492 133.216 57.408 133.216 51.135C133.216 44.862 138.3 39.778 144.573 39.778ZM144.573 61.836C146.418 61.836 148.181 61.385 149.698 60.565V53.841C148.714 55.645 146.787 56.916 144.573 56.916C141.375 56.916 138.792 54.333 138.792 51.135C138.792 47.937 141.375 45.354 144.573 45.354C146.787 45.354 148.714 46.625 149.698 48.47V41.746C148.181 40.926 146.418 40.434 144.573 40.434C138.669 40.434 133.872 45.231 133.872 51.135C133.872 57.039 138.669 61.836 144.573 61.836ZM144.573 56.26C147.443 56.26 149.698 53.964 149.698 51.135C149.698 48.306 147.443 46.01 144.573 46.01C141.744 46.01 139.448 48.306 139.448 51.135C139.448 53.964 141.744 56.26 144.573 56.26ZM162.161 40.926H158.922V40.27H162.161V33.3H162.817V40.27H167.737V33.3H168.393V40.27H171.632V40.926H168.393V45.846H171.632V46.502H168.393V62H167.737V46.502H162.817V62H162.161V46.502H158.922V45.846H162.161V40.926ZM167.737 40.926H162.817V45.846H167.737V40.926ZM172.975 51.135C172.975 44.862 178.059 39.778 184.332 39.778C189.334 39.778 193.557 42.976 195.074 47.486L181.749 55.563C182.528 56.014 183.389 56.26 184.332 56.26C186.382 56.26 188.145 55.03 188.965 53.308L189.58 53.595C188.678 55.563 186.669 56.916 184.332 56.916C183.143 56.916 182.036 56.547 181.134 55.932L176.706 58.638C178.633 60.606 181.339 61.836 184.332 61.836C188.596 61.836 192.327 59.294 194.049 55.645L194.623 55.932C192.819 59.827 188.883 62.492 184.332 62.492C178.059 62.492 172.975 57.408 172.975 51.135ZM173.631 51.135C173.631 52.324 173.836 53.431 174.164 54.497L178.592 51.791C178.551 51.586 178.551 51.34 178.551 51.135C178.551 47.937 181.134 45.354 184.332 45.354C185.521 45.354 186.669 45.723 187.571 46.338L191.958 43.673C190.031 41.664 187.325 40.434 184.332 40.434C178.428 40.434 173.631 45.231 173.631 51.135ZM174.41 55.112C174.861 56.219 175.476 57.244 176.255 58.146L180.56 55.522C179.658 54.743 179.002 53.677 178.715 52.488L174.41 55.112ZM179.207 51.135V51.422L186.956 46.707C186.177 46.256 185.275 46.01 184.332 46.01C181.503 46.01 179.207 48.306 179.207 51.135ZM179.289 52.16C179.535 53.349 180.232 54.415 181.175 55.153L189.375 50.151C189.129 48.962 188.473 47.896 187.53 47.117L179.289 52.16ZM188.145 46.789C189.047 47.568 189.703 48.593 189.949 49.823L194.295 47.158C193.844 46.051 193.188 45.067 192.45 44.165L188.145 46.789ZM224.207 55.522L221.583 62H220.927L213.916 44.698L210.882 62H210.226L213.465 43.55L209.816 34.448L204.978 62H204.322L209.365 33.3H210.021L213.67 42.402L215.269 33.3H215.925L224.207 53.882L232.489 33.3H233.145L234.744 42.361L238.393 33.3H239.049L244.092 62H243.436L238.598 34.448L234.949 43.509L238.188 62H237.532L234.498 44.616L227.487 62H226.831L224.207 55.522ZM227.159 61.18L234.293 43.468L232.694 34.448L224.535 54.702L227.159 61.18ZM223.879 54.702L215.72 34.448L214.121 43.55L221.255 61.18L223.879 54.702ZM262.463 42.115V60.155C265.21 58.474 267.383 55.071 267.383 51.135C267.383 47.199 265.21 43.796 262.463 42.115ZM256.682 39.778C258.527 39.778 260.249 40.229 261.807 41.008V40.27H262.463V41.377C264.759 42.648 266.522 44.944 267.383 47.322V40.27H268.039V62H267.383V54.907C266.563 57.244 264.759 59.663 262.463 60.934V62H261.807V61.262C260.249 62.041 258.527 62.492 256.682 62.492C250.409 62.492 245.325 57.408 245.325 51.135C245.325 44.862 250.409 39.778 256.682 39.778ZM256.682 61.836C258.527 61.836 260.29 61.385 261.807 60.565V53.841C260.823 55.645 258.896 56.916 256.682 56.916C253.484 56.916 250.901 54.333 250.901 51.135C250.901 47.937 253.484 45.354 256.682 45.354C258.896 45.354 260.823 46.625 261.807 48.47V41.746C260.29 40.926 258.527 40.434 256.682 40.434C250.778 40.434 245.981 45.231 245.981 51.135C245.981 57.039 250.778 61.836 256.682 61.836ZM256.682 56.26C259.552 56.26 261.807 53.964 261.807 51.135C261.807 48.306 259.552 46.01 256.682 46.01C253.853 46.01 251.557 48.306 251.557 51.135C251.557 53.964 253.853 56.26 256.682 56.26ZM272.22 62V40.27H272.876V46.461C273.778 44.124 275.541 42.197 277.796 41.09V40.27H278.452V40.762C279.6 40.311 280.83 40.065 282.142 40.065C287.595 40.065 292.064 44.534 292.064 49.987V62H291.408V49.987C291.408 44.903 287.226 40.721 282.142 40.721C280.83 40.721 279.6 41.008 278.452 41.5V47.691C279.231 46.461 280.584 45.641 282.142 45.641C284.52 45.641 286.488 47.609 286.488 49.987V62H285.832V49.987C285.832 47.978 284.151 46.297 282.142 46.297C280.133 46.297 278.452 47.978 278.452 49.987V62H277.796V41.828C274.885 43.386 272.876 46.461 272.876 49.987V62H272.22ZM311.832 42.115V60.155C314.579 58.474 316.752 55.071 316.752 51.135C316.752 47.199 314.579 43.796 311.832 42.115ZM306.051 39.778C307.896 39.778 309.618 40.229 311.176 41.008V40.27H311.832V41.377C314.128 42.648 315.891 44.944 316.752 47.322V40.27H317.408V62H316.752V54.907C315.932 57.244 314.128 59.663 311.832 60.934V62H311.176V61.262C309.618 62.041 307.896 62.492 306.051 62.492C299.778 62.492 294.694 57.408 294.694 51.135C294.694 44.862 299.778 39.778 306.051 39.778ZM306.051 61.836C307.896 61.836 309.659 61.385 311.176 60.565V53.841C310.192 55.645 308.265 56.916 306.051 56.916C302.853 56.916 300.27 54.333 300.27 51.135C300.27 47.937 302.853 45.354 306.051 45.354C308.265 45.354 310.192 46.625 311.176 48.47V41.746C309.659 40.926 307.896 40.434 306.051 40.434C300.147 40.434 295.35 45.231 295.35 51.135C295.35 57.039 300.147 61.836 306.051 61.836ZM306.051 56.26C308.921 56.26 311.176 53.964 311.176 51.135C311.176 48.306 308.921 46.01 306.051 46.01C303.222 46.01 300.926 48.306 300.926 51.135C300.926 53.964 303.222 56.26 306.051 56.26ZM320.4 51.135C320.4 44.862 325.484 39.778 331.757 39.778C333.602 39.778 335.324 40.229 336.882 41.008V40.27H337.538V41.377C339.834 42.648 341.597 44.944 342.458 47.322V40.27H343.114V60.155C343.114 66.428 338.071 71.512 331.757 71.512C327.862 71.512 324.418 69.503 322.327 66.51L322.901 66.182C324.869 69.011 328.108 70.856 331.757 70.856C337.743 70.856 342.458 66.1 342.458 60.155V54.907C341.638 57.285 339.793 59.663 337.456 60.934C337.046 63.722 334.709 65.936 331.757 65.936C329.912 65.936 328.231 65.034 327.165 63.722L327.739 63.394C328.641 64.501 330.158 65.28 331.757 65.28C334.217 65.28 336.226 63.599 336.759 61.344C335.242 62.041 333.52 62.492 331.757 62.492C325.484 62.492 320.4 57.408 320.4 51.135ZM321.056 51.135C321.056 57.039 325.853 61.836 331.757 61.836C333.602 61.836 335.324 61.385 336.841 60.565C336.882 60.278 336.882 59.745 336.882 59.212V53.841C335.898 55.645 333.971 56.916 331.757 56.916C328.559 56.916 325.976 54.333 325.976 51.135C325.976 47.937 328.559 45.354 331.757 45.354C333.971 45.354 335.898 46.625 336.882 48.47V41.746C335.365 40.926 333.602 40.434 331.757 40.434C325.853 40.434 321.056 45.231 321.056 51.135ZM326.632 51.135C326.632 53.964 328.928 56.26 331.757 56.26C334.627 56.26 336.882 53.964 336.882 51.135C336.882 48.306 334.627 46.01 331.757 46.01C328.928 46.01 326.632 48.306 326.632 51.135ZM337.538 42.115V60.155C340.285 58.474 342.458 55.071 342.458 51.135C342.458 47.199 340.285 43.796 337.538 42.115ZM346.024 51.135C346.024 44.862 351.108 39.778 357.381 39.778C362.383 39.778 366.606 42.976 368.123 47.486L354.798 55.563C355.577 56.014 356.438 56.26 357.381 56.26C359.431 56.26 361.194 55.03 362.014 53.308L362.629 53.595C361.727 55.563 359.718 56.916 357.381 56.916C356.192 56.916 355.085 56.547 354.183 55.932L349.755 58.638C351.682 60.606 354.388 61.836 357.381 61.836C361.645 61.836 365.376 59.294 367.098 55.645L367.672 55.932C365.868 59.827 361.932 62.492 357.381 62.492C351.108 62.492 346.024 57.408 346.024 51.135ZM346.68 51.135C346.68 52.324 346.885 53.431 347.213 54.497L351.641 51.791C351.6 51.586 351.6 51.34 351.6 51.135C351.6 47.937 354.183 45.354 357.381 45.354C358.57 45.354 359.718 45.723 360.62 46.338L365.007 43.673C363.08 41.664 360.374 40.434 357.381 40.434C351.477 40.434 346.68 45.231 346.68 51.135ZM347.459 55.112C347.91 56.219 348.525 57.244 349.304 58.146L353.609 55.522C352.707 54.743 352.051 53.677 351.764 52.488L347.459 55.112ZM352.256 51.135V51.422L360.005 46.707C359.226 46.256 358.324 46.01 357.381 46.01C354.552 46.01 352.256 48.306 352.256 51.135ZM352.338 52.16C352.584 53.349 353.281 54.415 354.224 55.153L362.424 50.151C362.178 48.962 361.522 47.896 360.579 47.117L352.338 52.16ZM361.194 46.789C362.096 47.568 362.752 48.593 362.998 49.823L367.344 47.158C366.893 46.051 366.237 45.067 365.499 44.165L361.194 46.789ZM370.116 62V40.27H370.772V45.969C371.674 43.714 373.478 41.869 375.692 40.885V40.27H376.348V40.639C377.291 40.311 378.357 40.106 379.423 40.106C381.801 40.106 383.974 41.008 385.614 42.484C387.254 41.008 389.427 40.106 391.805 40.106C396.93 40.106 401.112 44.288 401.112 49.413V62H400.456V49.413C400.456 44.657 396.561 40.762 391.805 40.762C389.632 40.762 387.623 41.582 386.106 42.935C387.336 44.206 388.197 45.805 388.566 47.609C389.181 46.461 390.411 45.682 391.805 45.682C393.855 45.682 395.536 47.363 395.536 49.413V62H394.88V49.413C394.88 47.732 393.486 46.338 391.805 46.338C390.124 46.338 388.73 47.732 388.73 49.413V62H388.074V49.413C388.074 47.076 387.131 44.944 385.614 43.386C384.097 44.944 383.154 47.076 383.154 49.413V62H382.498V49.413C382.498 47.732 381.104 46.338 379.423 46.338C377.742 46.338 376.348 47.732 376.348 49.413V62H375.692V41.623C372.781 43.017 370.772 46.01 370.772 49.413V62H370.116ZM376.348 41.336V47.322C377.004 46.338 378.152 45.682 379.423 45.682C380.817 45.682 382.047 46.461 382.662 47.609C383.031 45.805 383.892 44.206 385.122 42.935C383.605 41.582 381.596 40.762 379.423 40.762C378.357 40.762 377.291 40.967 376.348 41.336ZM403.76 51.135C403.76 44.862 408.844 39.778 415.117 39.778C420.119 39.778 424.342 42.976 425.859 47.486L412.534 55.563C413.313 56.014 414.174 56.26 415.117 56.26C417.167 56.26 418.93 55.03 419.75 53.308L420.365 53.595C419.463 55.563 417.454 56.916 415.117 56.916C413.928 56.916 412.821 56.547 411.919 55.932L407.491 58.638C409.418 60.606 412.124 61.836 415.117 61.836C419.381 61.836 423.112 59.294 424.834 55.645L425.408 55.932C423.604 59.827 419.668 62.492 415.117 62.492C408.844 62.492 403.76 57.408 403.76 51.135ZM404.416 51.135C404.416 52.324 404.621 53.431 404.949 54.497L409.377 51.791C409.336 51.586 409.336 51.34 409.336 51.135C409.336 47.937 411.919 45.354 415.117 45.354C416.306 45.354 417.454 45.723 418.356 46.338L422.743 43.673C420.816 41.664 418.11 40.434 415.117 40.434C409.213 40.434 404.416 45.231 404.416 51.135ZM405.195 55.112C405.646 56.219 406.261 57.244 407.04 58.146L411.345 55.522C410.443 54.743 409.787 53.677 409.5 52.488L405.195 55.112ZM409.992 51.135V51.422L417.741 46.707C416.962 46.256 416.06 46.01 415.117 46.01C412.288 46.01 409.992 48.306 409.992 51.135ZM410.074 52.16C410.32 53.349 411.017 54.415 411.96 55.153L420.16 50.151C419.914 48.962 419.258 47.896 418.315 47.117L410.074 52.16ZM418.93 46.789C419.832 47.568 420.488 48.593 420.734 49.823L425.08 47.158C424.629 46.051 423.973 45.067 423.235 44.165L418.93 46.789ZM427.852 62V40.27H428.508V46.461C429.41 44.124 431.173 42.197 433.428 41.09V40.27H434.084V40.762C435.232 40.311 436.462 40.065 437.774 40.065C443.227 40.065 447.696 44.534 447.696 49.987V62H447.04V49.987C447.04 44.903 442.858 40.721 437.774 40.721C436.462 40.721 435.232 41.008 434.084 41.5V47.691C434.863 46.461 436.216 45.641 437.774 45.641C440.152 45.641 442.12 47.609 442.12 49.987V62H441.464V49.987C441.464 47.978 439.783 46.297 437.774 46.297C435.765 46.297 434.084 47.978 434.084 49.987V62H433.428V41.828C430.517 43.386 428.508 46.461 428.508 49.987V62H427.852ZM453.205 40.926H449.966V40.27H453.205V33.3H453.861V40.27H458.781V33.3H459.437V40.27H462.676V40.926H459.437V45.846H462.676V46.502H459.437V62H458.781V46.502H453.861V62H453.205V46.502H449.966V45.846H453.205V40.926ZM458.781 40.926H453.861V45.846H458.781V40.926ZM474.791 62V33.3H482.827C488.034 33.3 492.257 37.523 492.257 42.73C492.257 44.534 491.765 46.215 490.863 47.65C491.765 49.044 492.257 50.766 492.257 52.57C492.257 57.777 488.034 62 482.827 62H474.791ZM475.447 61.344H480.367V56.424H475.447V61.344ZM475.447 55.768H480.367V49.372H475.447V55.768ZM475.447 48.716H480.367V46.584H475.447V48.716ZM475.447 45.928H480.367V39.532H475.447V45.928ZM475.447 38.876H480.367V33.956H475.447V38.876ZM481.023 61.344H482.827C487.665 61.344 491.601 57.408 491.601 52.57C491.601 50.725 491.027 49.044 490.084 47.65C491.027 46.256 491.601 44.575 491.601 42.73C491.601 37.892 487.665 33.956 482.827 33.956H481.023V38.876H482.827C484.959 38.876 486.681 40.598 486.681 42.73C486.681 44.862 484.959 46.584 482.827 46.584H481.023V48.716H482.827C484.959 48.716 486.681 50.438 486.681 52.57C486.681 54.702 484.959 56.424 482.827 56.424H481.023V61.344ZM481.023 55.768H482.827C484.59 55.768 486.025 54.333 486.025 52.57C486.025 50.807 484.59 49.372 482.827 49.372H481.023V55.768ZM481.023 45.928H482.827C484.59 45.928 486.025 44.493 486.025 42.73C486.025 40.967 484.59 39.532 482.827 39.532H481.023V45.928ZM505.926 62.492C499.653 62.492 494.569 57.408 494.569 51.135C494.569 44.862 499.653 39.778 505.926 39.778C512.199 39.778 517.283 44.862 517.283 51.135C517.283 57.408 512.199 62.492 505.926 62.492ZM505.926 61.836C511.83 61.836 516.627 57.039 516.627 51.135C516.627 45.231 511.83 40.434 505.926 40.434C500.022 40.434 495.225 45.231 495.225 51.135C495.225 57.039 500.022 61.836 505.926 61.836ZM505.926 56.916C502.728 56.916 500.145 54.333 500.145 51.135C500.145 47.937 502.728 45.354 505.926 45.354C509.124 45.354 511.707 47.937 511.707 51.135C511.707 54.333 509.124 56.916 505.926 56.916ZM505.926 56.26C508.755 56.26 511.051 53.964 511.051 51.135C511.051 48.306 508.755 46.01 505.926 46.01C503.097 46.01 500.801 48.306 500.801 51.135C500.801 53.964 503.097 56.26 505.926 56.26ZM520.222 62V40.27H520.878V62H520.222ZM526.454 40.27V62H525.798V40.27H526.454ZM525.798 38.138V31.25H526.454V38.138H525.798ZM520.878 31.25V38.138H520.222V31.25H520.878ZM531.289 31.25V62H530.633V31.25H531.289ZM536.865 31.25V62H536.209V31.25H536.865ZM539.813 51.135C539.813 44.862 544.897 39.778 551.17 39.778C556.172 39.778 560.395 42.976 561.912 47.486L548.587 55.563C549.366 56.014 550.227 56.26 551.17 56.26C553.22 56.26 554.983 55.03 555.803 53.308L556.418 53.595C555.516 55.563 553.507 56.916 551.17 56.916C549.981 56.916 548.874 56.547 547.972 55.932L543.544 58.638C545.471 60.606 548.177 61.836 551.17 61.836C555.434 61.836 559.165 59.294 560.887 55.645L561.461 55.932C559.657 59.827 555.721 62.492 551.17 62.492C544.897 62.492 539.813 57.408 539.813 51.135ZM540.469 51.135C540.469 52.324 540.674 53.431 541.002 54.497L545.43 51.791C545.389 51.586 545.389 51.34 545.389 51.135C545.389 47.937 547.972 45.354 551.17 45.354C552.359 45.354 553.507 45.723 554.409 46.338L558.796 43.673C556.869 41.664 554.163 40.434 551.17 40.434C545.266 40.434 540.469 45.231 540.469 51.135ZM541.248 55.112C541.699 56.219 542.314 57.244 543.093 58.146L547.398 55.522C546.496 54.743 545.84 53.677 545.553 52.488L541.248 55.112ZM546.045 51.135V51.422L553.794 46.707C553.015 46.256 552.113 46.01 551.17 46.01C548.341 46.01 546.045 48.306 546.045 51.135ZM546.127 52.16C546.373 53.349 547.07 54.415 548.013 55.153L556.213 50.151C555.967 48.962 555.311 47.896 554.368 47.117L546.127 52.16ZM554.983 46.789C555.885 47.568 556.541 48.593 556.787 49.823L561.133 47.158C560.682 46.051 560.026 45.067 559.288 44.165L554.983 46.789ZM569.481 62V42.689C567.267 44.042 564.561 46.83 564.561 51.709V62H563.905V40.27H564.561V47.732C565.586 44.903 567.185 43.304 569.481 41.951V40.27H570.137V41.582C571.777 40.762 573.54 40.352 575.262 40.352V41.008C573.54 41.008 571.736 41.459 570.137 42.32V49.044C571.08 47.199 573.048 45.928 575.262 45.928V46.584C572.392 46.584 570.137 48.88 570.137 51.709V62H569.481ZM593.092 39.532V45.928H596.003C597.807 45.928 599.201 44.534 599.201 42.73C599.201 40.926 597.807 39.532 596.003 39.532H593.092ZM593.092 38.876H596.003C598.135 38.876 599.857 40.598 599.857 42.73C599.857 44.862 598.135 46.584 596.003 46.584H593.092V51.504H596.003C600.923 51.504 604.777 47.65 604.777 42.73C604.777 37.81 600.923 33.956 596.003 33.956H593.092V38.876ZM587.516 52.16V62H586.86V33.3H596.003C601.251 33.3 605.433 37.482 605.433 42.73C605.433 47.978 601.251 52.16 596.003 52.16H593.092V62H592.436V52.16H587.516ZM587.516 39.532V45.928H592.436V39.532H587.516ZM592.436 33.956H587.516V38.876H592.436V33.956ZM592.436 46.584H587.516V51.504H592.436V46.584ZM608.884 31.25V62H608.228V31.25H608.884ZM614.46 31.25V62H613.804V31.25H614.46ZM634.546 42.115V60.155C637.293 58.474 639.466 55.071 639.466 51.135C639.466 47.199 637.293 43.796 634.546 42.115ZM628.765 39.778C630.61 39.778 632.332 40.229 633.89 41.008V40.27H634.546V41.377C636.842 42.648 638.605 44.944 639.466 47.322V40.27H640.122V62H639.466V54.907C638.646 57.244 636.842 59.663 634.546 60.934V62H633.89V61.262C632.332 62.041 630.61 62.492 628.765 62.492C622.492 62.492 617.408 57.408 617.408 51.135C617.408 44.862 622.492 39.778 628.765 39.778ZM628.765 61.836C630.61 61.836 632.373 61.385 633.89 60.565V53.841C632.906 55.645 630.979 56.916 628.765 56.916C625.567 56.916 622.984 54.333 622.984 51.135C622.984 47.937 625.567 45.354 628.765 45.354C630.979 45.354 632.906 46.625 633.89 48.47V41.746C632.373 40.926 630.61 40.434 628.765 40.434C622.861 40.434 618.064 45.231 618.064 51.135C618.064 57.039 622.861 61.836 628.765 61.836ZM628.765 56.26C631.635 56.26 633.89 53.964 633.89 51.135C633.89 48.306 631.635 46.01 628.765 46.01C625.936 46.01 623.64 48.306 623.64 51.135C623.64 53.964 625.936 56.26 628.765 56.26ZM646.353 40.926H643.114V40.27H646.353V33.3H647.009V40.27H651.929V33.3H652.585V40.27H655.824V40.926H652.585V45.846H655.824V46.502H652.585V62H651.929V46.502H647.009V62H646.353V46.502H643.114V45.846H646.353V40.926ZM651.929 40.926H647.009V45.846H651.929V40.926ZM657.167 51.135C657.167 44.862 662.251 39.778 668.524 39.778C673.526 39.778 677.749 42.976 679.266 47.486L665.941 55.563C666.72 56.014 667.581 56.26 668.524 56.26C670.574 56.26 672.337 55.03 673.157 53.308L673.772 53.595C672.87 55.563 670.861 56.916 668.524 56.916C667.335 56.916 666.228 56.547 665.326 55.932L660.898 58.638C662.825 60.606 665.531 61.836 668.524 61.836C672.788 61.836 676.519 59.294 678.241 55.645L678.815 55.932C677.011 59.827 673.075 62.492 668.524 62.492C662.251 62.492 657.167 57.408 657.167 51.135ZM657.823 51.135C657.823 52.324 658.028 53.431 658.356 54.497L662.784 51.791C662.743 51.586 662.743 51.34 662.743 51.135C662.743 47.937 665.326 45.354 668.524 45.354C669.713 45.354 670.861 45.723 671.763 46.338L676.15 43.673C674.223 41.664 671.517 40.434 668.524 40.434C662.62 40.434 657.823 45.231 657.823 51.135ZM658.602 55.112C659.053 56.219 659.668 57.244 660.447 58.146L664.752 55.522C663.85 54.743 663.194 53.677 662.907 52.488L658.602 55.112ZM663.399 51.135V51.422L671.148 46.707C670.369 46.256 669.467 46.01 668.524 46.01C665.695 46.01 663.399 48.306 663.399 51.135ZM663.481 52.16C663.727 53.349 664.424 54.415 665.367 55.153L673.567 50.151C673.321 48.962 672.665 47.896 671.722 47.117L663.481 52.16ZM672.337 46.789C673.239 47.568 673.895 48.593 674.141 49.823L678.487 47.158C678.036 46.051 677.38 45.067 676.642 44.165L672.337 46.789ZM695.116 61.344H709.056V62H687.818L699.585 39.532H689.54V38.876H699.954L702.537 33.956H689.54V33.3H709.835L698.068 55.768H709.056V56.424H697.74L695.116 61.344ZM697.33 55.768L705.817 39.532H700.323L691.836 55.768H697.33ZM694.378 61.344L697.002 56.424H691.508L688.884 61.344H694.378ZM703.275 33.956L700.692 38.876H706.186L708.769 33.956H703.275ZM712.37 62V40.27H713.026V62H712.37ZM718.602 40.27V62H717.946V40.27H718.602ZM717.946 38.138V31.25H718.602V38.138H717.946ZM713.026 31.25V38.138H712.37V31.25H713.026ZM742.296 40.27V62H741.64V55.809C740.738 58.146 738.975 60.073 736.72 61.18V62H736.064V61.508C734.916 61.959 733.686 62.205 732.374 62.205C726.921 62.205 722.452 57.736 722.452 52.283V40.27H723.108V52.283C723.108 57.367 727.29 61.549 732.374 61.549C733.686 61.549 734.916 61.262 736.064 60.77V54.579C735.285 55.809 733.932 56.629 732.374 56.629C729.996 56.629 728.028 54.661 728.028 52.283V40.27H728.684V52.283C728.684 54.292 730.365 55.973 732.374 55.973C734.383 55.973 736.064 54.292 736.064 52.283V40.27H736.72V60.442C739.631 58.884 741.64 55.809 741.64 52.283V40.27H742.296ZM745.499 46.953C745.499 42.976 748.697 39.778 752.674 39.778C755.626 39.778 758.168 41.582 759.275 44.124L758.66 44.411C757.676 42.074 755.339 40.434 752.674 40.434C749.066 40.434 746.155 43.345 746.155 46.953C746.155 50.028 748.246 52.57 751.116 53.308L752.92 53.759C753.617 53.923 754.109 54.579 754.109 55.317C754.109 56.219 753.412 56.916 752.51 56.916C751.813 56.916 751.239 56.506 750.993 55.85L751.608 55.604C751.731 55.973 752.059 56.26 752.51 56.26C753.043 56.26 753.453 55.85 753.453 55.317C753.453 54.866 753.207 54.497 752.756 54.374L750.911 53.923C747.795 53.144 745.499 50.315 745.499 46.953ZM745.909 58.187L746.524 57.9C747.508 60.237 749.804 61.836 752.51 61.836C756.118 61.836 759.029 58.925 759.029 55.317C759.029 52.242 756.938 49.7 754.068 48.962L752.264 48.511C751.526 48.306 751.075 47.691 751.075 46.953C751.075 46.051 751.772 45.354 752.674 45.354C753.371 45.354 753.945 45.805 754.15 46.42L753.576 46.666C753.453 46.297 753.084 46.01 752.674 46.01C752.141 46.01 751.731 46.42 751.731 46.953C751.731 47.404 751.977 47.773 752.428 47.896L754.273 48.347C757.43 49.126 759.685 51.955 759.685 55.317C759.685 59.294 756.487 62.492 752.51 62.492C749.558 62.492 747.016 60.729 745.909 58.187ZM764.749 40.926H761.51V40.27H764.749V33.3H765.405V40.27H770.325V33.3H770.981V40.27H774.22V40.926H770.981V45.846H774.22V46.502H770.981V62H770.325V46.502H765.405V62H764.749V46.502H761.51V45.846H764.749V40.926ZM770.325 40.926H765.405V45.846H770.325V40.926ZM792.701 42.115V60.155C795.448 58.474 797.621 55.071 797.621 51.135C797.621 47.199 795.448 43.796 792.701 42.115ZM786.92 39.778C788.765 39.778 790.487 40.229 792.045 41.008V40.27H792.701V41.377C794.997 42.648 796.76 44.944 797.621 47.322V40.27H798.277V62H797.621V54.907C796.801 57.244 794.997 59.663 792.701 60.934V62H792.045V61.262C790.487 62.041 788.765 62.492 786.92 62.492C780.647 62.492 775.563 57.408 775.563 51.135C775.563 44.862 780.647 39.778 786.92 39.778ZM786.92 61.836C788.765 61.836 790.528 61.385 792.045 60.565V53.841C791.061 55.645 789.134 56.916 786.92 56.916C783.722 56.916 781.139 54.333 781.139 51.135C781.139 47.937 783.722 45.354 786.92 45.354C789.134 45.354 791.061 46.625 792.045 48.47V41.746C790.528 40.926 788.765 40.434 786.92 40.434C781.016 40.434 776.219 45.231 776.219 51.135C776.219 57.039 781.016 61.836 786.92 61.836ZM786.92 56.26C789.79 56.26 792.045 53.964 792.045 51.135C792.045 48.306 789.79 46.01 786.92 46.01C784.091 46.01 781.795 48.306 781.795 51.135C781.795 53.964 784.091 56.26 786.92 56.26ZM802.458 62V40.27H803.114V46.461C804.016 44.124 805.779 42.197 808.034 41.09V40.27H808.69V40.762C809.838 40.311 811.068 40.065 812.38 40.065C817.833 40.065 822.302 44.534 822.302 49.987V62H821.646V49.987C821.646 44.903 817.464 40.721 812.38 40.721C811.068 40.721 809.838 41.008 808.69 41.5V47.691C809.469 46.461 810.822 45.641 812.38 45.641C814.758 45.641 816.726 47.609 816.726 49.987V62H816.07V49.987C816.07 47.978 814.389 46.297 812.38 46.297C810.371 46.297 808.69 47.978 808.69 49.987V62H808.034V41.828C805.123 43.386 803.114 46.461 803.114 49.987V62H802.458ZM824.931 51.135C824.931 44.862 830.015 39.778 836.288 39.778C838.133 39.778 839.855 40.229 841.413 41.008V31.25H842.069V41.377C844.365 42.648 846.128 44.944 846.989 47.322V31.25H847.645V62H846.989V54.907C846.169 57.244 844.365 59.663 842.069 60.934V62H841.413V61.262C839.855 62.041 838.133 62.492 836.288 62.492C830.015 62.492 824.931 57.408 824.931 51.135ZM825.587 51.135C825.587 57.039 830.384 61.836 836.288 61.836C838.133 61.836 839.896 61.385 841.413 60.565V53.841C840.429 55.645 838.502 56.916 836.288 56.916C833.09 56.916 830.507 54.333 830.507 51.135C830.507 47.937 833.09 45.354 836.288 45.354C838.502 45.354 840.429 46.625 841.413 48.47V41.746C839.896 40.926 838.133 40.434 836.288 40.434C830.384 40.434 825.587 45.231 825.587 51.135ZM831.163 51.135C831.163 53.964 833.459 56.26 836.288 56.26C839.158 56.26 841.413 53.964 841.413 51.135C841.413 48.306 839.158 46.01 836.288 46.01C833.459 46.01 831.163 48.306 831.163 51.135ZM842.069 42.115V60.155C844.816 58.474 846.989 55.071 846.989 51.135C846.989 47.199 844.816 43.796 842.069 42.115ZM859.737 41.746C859.737 36.826 863.755 32.849 868.839 32.849C872.775 32.849 876.096 35.268 877.367 38.671L876.793 38.917C875.604 35.719 872.488 33.423 868.839 33.464C864.165 33.505 860.352 37.154 860.393 41.746C860.434 45.6 863.058 48.88 866.707 49.7L869.659 50.356C871.135 50.684 872.242 52.037 872.242 53.554C872.242 55.399 870.684 56.875 868.716 56.875C867.035 56.875 865.641 55.768 865.272 54.292L865.887 54.005C866.133 55.276 867.281 56.301 868.716 56.26C870.315 56.219 871.545 55.03 871.586 53.554C871.627 52.324 870.725 51.258 869.454 50.971L866.584 50.356C862.566 49.495 859.737 45.887 859.737 41.746ZM860.147 56.629L860.762 56.342C861.91 59.581 865.026 61.877 868.716 61.836C873.39 61.795 877.203 58.146 877.162 53.554C877.121 49.7 874.497 46.42 870.848 45.6L867.896 44.944C866.42 44.616 865.313 43.263 865.313 41.746C865.313 39.901 866.871 38.425 868.839 38.425C870.52 38.425 871.914 39.491 872.242 40.967L871.668 41.254C871.422 39.983 870.233 38.999 868.839 39.04C867.24 39.081 866.01 40.27 865.969 41.746C865.928 42.976 866.83 44.042 868.101 44.329L870.971 44.944C874.989 45.805 877.818 49.413 877.818 53.554C877.818 58.474 873.8 62.451 868.716 62.451C864.739 62.451 861.418 60.032 860.147 56.629ZM882.624 40.926H879.385V40.27H882.624V33.3H883.28V40.27H888.2V33.3H888.856V40.27H892.095V40.926H888.856V45.846H892.095V46.502H888.856V62H888.2V46.502H883.28V62H882.624V46.502H879.385V45.846H882.624V40.926ZM888.2 40.926H883.28V45.846H888.2V40.926ZM910.576 42.115V60.155C913.323 58.474 915.496 55.071 915.496 51.135C915.496 47.199 913.323 43.796 910.576 42.115ZM904.795 39.778C906.64 39.778 908.362 40.229 909.92 41.008V40.27H910.576V41.377C912.872 42.648 914.635 44.944 915.496 47.322V40.27H916.152V62H915.496V54.907C914.676 57.244 912.872 59.663 910.576 60.934V62H909.92V61.262C908.362 62.041 906.64 62.492 904.795 62.492C898.522 62.492 893.438 57.408 893.438 51.135C893.438 44.862 898.522 39.778 904.795 39.778ZM904.795 61.836C906.64 61.836 908.403 61.385 909.92 60.565V53.841C908.936 55.645 907.009 56.916 904.795 56.916C901.597 56.916 899.014 54.333 899.014 51.135C899.014 47.937 901.597 45.354 904.795 45.354C907.009 45.354 908.936 46.625 909.92 48.47V41.746C908.403 40.926 906.64 40.434 904.795 40.434C898.891 40.434 894.094 45.231 894.094 51.135C894.094 57.039 898.891 61.836 904.795 61.836ZM904.795 56.26C907.665 56.26 909.92 53.964 909.92 51.135C909.92 48.306 907.665 46.01 904.795 46.01C901.966 46.01 899.67 48.306 899.67 51.135C899.67 53.964 901.966 56.26 904.795 56.26ZM922.383 40.926H919.144V40.27H922.383V33.3H923.039V40.27H927.959V33.3H928.615V40.27H931.854V40.926H928.615V45.846H931.854V46.502H928.615V62H927.959V46.502H923.039V62H922.383V46.502H919.144V45.846H922.383V40.926ZM927.959 40.926H923.039V45.846H927.959V40.926ZM933.196 51.135C933.196 44.862 938.28 39.778 944.553 39.778C949.555 39.778 953.778 42.976 955.295 47.486L941.97 55.563C942.749 56.014 943.61 56.26 944.553 56.26C946.603 56.26 948.366 55.03 949.186 53.308L949.801 53.595C948.899 55.563 946.89 56.916 944.553 56.916C943.364 56.916 942.257 56.547 941.355 55.932L936.927 58.638C938.854 60.606 941.56 61.836 944.553 61.836C948.817 61.836 952.548 59.294 954.27 55.645L954.844 55.932C953.04 59.827 949.104 62.492 944.553 62.492C938.28 62.492 933.196 57.408 933.196 51.135ZM933.852 51.135C933.852 52.324 934.057 53.431 934.385 54.497L938.813 51.791C938.772 51.586 938.772 51.34 938.772 51.135C938.772 47.937 941.355 45.354 944.553 45.354C945.742 45.354 946.89 45.723 947.792 46.338L952.179 43.673C950.252 41.664 947.546 40.434 944.553 40.434C938.649 40.434 933.852 45.231 933.852 51.135ZM934.631 55.112C935.082 56.219 935.697 57.244 936.476 58.146L940.781 55.522C939.879 54.743 939.223 53.677 938.936 52.488L934.631 55.112ZM939.428 51.135V51.422L947.177 46.707C946.398 46.256 945.496 46.01 944.553 46.01C941.724 46.01 939.428 48.306 939.428 51.135ZM939.51 52.16C939.756 53.349 940.453 54.415 941.396 55.153L949.596 50.151C949.35 48.962 948.694 47.896 947.751 47.117L939.51 52.16ZM948.366 46.789C949.268 47.568 949.924 48.593 950.17 49.823L954.516 47.158C954.065 46.051 953.409 45.067 952.671 44.165L948.366 46.789ZM984.429 55.522L981.805 62H981.149L974.138 44.698L971.104 62H970.448L973.687 43.55L970.038 34.448L965.2 62H964.544L969.587 33.3H970.243L973.892 42.402L975.491 33.3H976.147L984.429 53.882L992.711 33.3H993.367L994.966 42.361L998.615 33.3H999.271L1004.31 62H1003.66L998.82 34.448L995.171 43.509L998.41 62H997.754L994.72 44.616L987.709 62H987.053L984.429 55.522ZM987.381 61.18L994.515 43.468L992.916 34.448L984.757 54.702L987.381 61.18ZM984.101 54.702L975.942 34.448L974.343 43.55L981.477 61.18L984.101 54.702ZM1022.69 42.115V60.155C1025.43 58.474 1027.61 55.071 1027.61 51.135C1027.61 47.199 1025.43 43.796 1022.69 42.115ZM1016.9 39.778C1018.75 39.778 1020.47 40.229 1022.03 41.008V40.27H1022.69V41.377C1024.98 42.648 1026.74 44.944 1027.61 47.322V40.27H1028.26V62H1027.61V54.907C1026.79 57.244 1024.98 59.663 1022.69 60.934V62H1022.03V61.262C1020.47 62.041 1018.75 62.492 1016.9 62.492C1010.63 62.492 1005.55 57.408 1005.55 51.135C1005.55 44.862 1010.63 39.778 1016.9 39.778ZM1016.9 61.836C1018.75 61.836 1020.51 61.385 1022.03 60.565V53.841C1021.05 55.645 1019.12 56.916 1016.9 56.916C1013.71 56.916 1011.12 54.333 1011.12 51.135C1011.12 47.937 1013.71 45.354 1016.9 45.354C1019.12 45.354 1021.05 46.625 1022.03 48.47V41.746C1020.51 40.926 1018.75 40.434 1016.9 40.434C1011 40.434 1006.2 45.231 1006.2 51.135C1006.2 57.039 1011 61.836 1016.9 61.836ZM1016.9 56.26C1019.77 56.26 1022.03 53.964 1022.03 51.135C1022.03 48.306 1019.77 46.01 1016.9 46.01C1014.08 46.01 1011.78 48.306 1011.78 51.135C1011.78 53.964 1014.08 56.26 1016.9 56.26ZM1032.44 62V40.27H1033.1V46.461C1034 44.124 1035.76 42.197 1038.02 41.09V40.27H1038.67V40.762C1039.82 40.311 1041.05 40.065 1042.36 40.065C1047.82 40.065 1052.29 44.534 1052.29 49.987V62H1051.63V49.987C1051.63 44.903 1047.45 40.721 1042.36 40.721C1041.05 40.721 1039.82 41.008 1038.67 41.5V47.691C1039.45 46.461 1040.81 45.641 1042.36 45.641C1044.74 45.641 1046.71 47.609 1046.71 49.987V62H1046.05V49.987C1046.05 47.978 1044.37 46.297 1042.36 46.297C1040.36 46.297 1038.67 47.978 1038.67 49.987V62H1038.02V41.828C1035.11 43.386 1033.1 46.461 1033.1 49.987V62H1032.44ZM1072.05 42.115V60.155C1074.8 58.474 1076.97 55.071 1076.97 51.135C1076.97 47.199 1074.8 43.796 1072.05 42.115ZM1066.27 39.778C1068.12 39.778 1069.84 40.229 1071.4 41.008V40.27H1072.05V41.377C1074.35 42.648 1076.11 44.944 1076.97 47.322V40.27H1077.63V62H1076.97V54.907C1076.15 57.244 1074.35 59.663 1072.05 60.934V62H1071.4V61.262C1069.84 62.041 1068.12 62.492 1066.27 62.492C1060 62.492 1054.92 57.408 1054.92 51.135C1054.92 44.862 1060 39.778 1066.27 39.778ZM1066.27 61.836C1068.12 61.836 1069.88 61.385 1071.4 60.565V53.841C1070.41 55.645 1068.49 56.916 1066.27 56.916C1063.07 56.916 1060.49 54.333 1060.49 51.135C1060.49 47.937 1063.07 45.354 1066.27 45.354C1068.49 45.354 1070.41 46.625 1071.4 48.47V41.746C1069.88 40.926 1068.12 40.434 1066.27 40.434C1060.37 40.434 1055.57 45.231 1055.57 51.135C1055.57 57.039 1060.37 61.836 1066.27 61.836ZM1066.27 56.26C1069.14 56.26 1071.4 53.964 1071.4 51.135C1071.4 48.306 1069.14 46.01 1066.27 46.01C1063.44 46.01 1061.15 48.306 1061.15 51.135C1061.15 53.964 1063.44 56.26 1066.27 56.26ZM1080.62 51.135C1080.62 44.862 1085.71 39.778 1091.98 39.778C1093.82 39.778 1095.55 40.229 1097.1 41.008V40.27H1097.76V41.377C1100.06 42.648 1101.82 44.944 1102.68 47.322V40.27H1103.34V60.155C1103.34 66.428 1098.29 71.512 1091.98 71.512C1088.08 71.512 1084.64 69.503 1082.55 66.51L1083.12 66.182C1085.09 69.011 1088.33 70.856 1091.98 70.856C1097.96 70.856 1102.68 66.1 1102.68 60.155V54.907C1101.86 57.285 1100.01 59.663 1097.68 60.934C1097.27 63.722 1094.93 65.936 1091.98 65.936C1090.13 65.936 1088.45 65.034 1087.39 63.722L1087.96 63.394C1088.86 64.501 1090.38 65.28 1091.98 65.28C1094.44 65.28 1096.45 63.599 1096.98 61.344C1095.46 62.041 1093.74 62.492 1091.98 62.492C1085.71 62.492 1080.62 57.408 1080.62 51.135ZM1081.28 51.135C1081.28 57.039 1086.07 61.836 1091.98 61.836C1093.82 61.836 1095.55 61.385 1097.06 60.565C1097.1 60.278 1097.1 59.745 1097.1 59.212V53.841C1096.12 55.645 1094.19 56.916 1091.98 56.916C1088.78 56.916 1086.2 54.333 1086.2 51.135C1086.2 47.937 1088.78 45.354 1091.98 45.354C1094.19 45.354 1096.12 46.625 1097.1 48.47V41.746C1095.59 40.926 1093.82 40.434 1091.98 40.434C1086.07 40.434 1081.28 45.231 1081.28 51.135ZM1086.85 51.135C1086.85 53.964 1089.15 56.26 1091.98 56.26C1094.85 56.26 1097.1 53.964 1097.1 51.135C1097.1 48.306 1094.85 46.01 1091.98 46.01C1089.15 46.01 1086.85 48.306 1086.85 51.135ZM1097.76 42.115V60.155C1100.51 58.474 1102.68 55.071 1102.68 51.135C1102.68 47.199 1100.51 43.796 1097.76 42.115ZM1106.25 51.135C1106.25 44.862 1111.33 39.778 1117.6 39.778C1122.6 39.778 1126.83 42.976 1128.34 47.486L1115.02 55.563C1115.8 56.014 1116.66 56.26 1117.6 56.26C1119.65 56.26 1121.42 55.03 1122.24 53.308L1122.85 53.595C1121.95 55.563 1119.94 56.916 1117.6 56.916C1116.41 56.916 1115.31 56.547 1114.4 55.932L1109.98 58.638C1111.9 60.606 1114.61 61.836 1117.6 61.836C1121.87 61.836 1125.6 59.294 1127.32 55.645L1127.89 55.932C1126.09 59.827 1122.15 62.492 1117.6 62.492C1111.33 62.492 1106.25 57.408 1106.25 51.135ZM1106.9 51.135C1106.9 52.324 1107.11 53.431 1107.43 54.497L1111.86 51.791C1111.82 51.586 1111.82 51.34 1111.82 51.135C1111.82 47.937 1114.4 45.354 1117.6 45.354C1118.79 45.354 1119.94 45.723 1120.84 46.338L1125.23 43.673C1123.3 41.664 1120.6 40.434 1117.6 40.434C1111.7 40.434 1106.9 45.231 1106.9 51.135ZM1107.68 55.112C1108.13 56.219 1108.75 57.244 1109.53 58.146L1113.83 55.522C1112.93 54.743 1112.27 53.677 1111.99 52.488L1107.68 55.112ZM1112.48 51.135V51.422L1120.23 46.707C1119.45 46.256 1118.55 46.01 1117.6 46.01C1114.77 46.01 1112.48 48.306 1112.48 51.135ZM1112.56 52.16C1112.81 53.349 1113.5 54.415 1114.45 55.153L1122.65 50.151C1122.4 48.962 1121.74 47.896 1120.8 47.117L1112.56 52.16ZM1121.42 46.789C1122.32 47.568 1122.97 48.593 1123.22 49.823L1127.57 47.158C1127.11 46.051 1126.46 45.067 1125.72 44.165L1121.42 46.789ZM1130.34 62V40.27H1130.99V45.969C1131.9 43.714 1133.7 41.869 1135.91 40.885V40.27H1136.57V40.639C1137.51 40.311 1138.58 40.106 1139.64 40.106C1142.02 40.106 1144.2 41.008 1145.84 42.484C1147.48 41.008 1149.65 40.106 1152.03 40.106C1157.15 40.106 1161.33 44.288 1161.33 49.413V62H1160.68V49.413C1160.68 44.657 1156.78 40.762 1152.03 40.762C1149.85 40.762 1147.84 41.582 1146.33 42.935C1147.56 44.206 1148.42 45.805 1148.79 47.609C1149.4 46.461 1150.63 45.682 1152.03 45.682C1154.08 45.682 1155.76 47.363 1155.76 49.413V62H1155.1V49.413C1155.1 47.732 1153.71 46.338 1152.03 46.338C1150.35 46.338 1148.95 47.732 1148.95 49.413V62H1148.3V49.413C1148.3 47.076 1147.35 44.944 1145.84 43.386C1144.32 44.944 1143.38 47.076 1143.38 49.413V62H1142.72V49.413C1142.72 47.732 1141.33 46.338 1139.64 46.338C1137.96 46.338 1136.57 47.732 1136.57 49.413V62H1135.91V41.623C1133 43.017 1130.99 46.01 1130.99 49.413V62H1130.34ZM1136.57 41.336V47.322C1137.23 46.338 1138.37 45.682 1139.64 45.682C1141.04 45.682 1142.27 46.461 1142.88 47.609C1143.25 45.805 1144.11 44.206 1145.34 42.935C1143.83 41.582 1141.82 40.762 1139.64 40.762C1138.58 40.762 1137.51 40.967 1136.57 41.336ZM1163.98 51.135C1163.98 44.862 1169.07 39.778 1175.34 39.778C1180.34 39.778 1184.56 42.976 1186.08 47.486L1172.76 55.563C1173.53 56.014 1174.4 56.26 1175.34 56.26C1177.39 56.26 1179.15 55.03 1179.97 53.308L1180.59 53.595C1179.68 55.563 1177.68 56.916 1175.34 56.916C1174.15 56.916 1173.04 56.547 1172.14 55.932L1167.71 58.638C1169.64 60.606 1172.35 61.836 1175.34 61.836C1179.6 61.836 1183.33 59.294 1185.06 55.645L1185.63 55.932C1183.83 59.827 1179.89 62.492 1175.34 62.492C1169.07 62.492 1163.98 57.408 1163.98 51.135ZM1164.64 51.135C1164.64 52.324 1164.84 53.431 1165.17 54.497L1169.6 51.791C1169.56 51.586 1169.56 51.34 1169.56 51.135C1169.56 47.937 1172.14 45.354 1175.34 45.354C1176.53 45.354 1177.68 45.723 1178.58 46.338L1182.96 43.673C1181.04 41.664 1178.33 40.434 1175.34 40.434C1169.43 40.434 1164.64 45.231 1164.64 51.135ZM1165.42 55.112C1165.87 56.219 1166.48 57.244 1167.26 58.146L1171.57 55.522C1170.66 54.743 1170.01 53.677 1169.72 52.488L1165.42 55.112ZM1170.21 51.135V51.422L1177.96 46.707C1177.18 46.256 1176.28 46.01 1175.34 46.01C1172.51 46.01 1170.21 48.306 1170.21 51.135ZM1170.3 52.16C1170.54 53.349 1171.24 54.415 1172.18 55.153L1180.38 50.151C1180.14 48.962 1179.48 47.896 1178.54 47.117L1170.3 52.16ZM1179.15 46.789C1180.05 47.568 1180.71 48.593 1180.96 49.823L1185.3 47.158C1184.85 46.051 1184.19 45.067 1183.46 44.165L1179.15 46.789ZM1188.07 62V40.27H1188.73V46.461C1189.63 44.124 1191.39 42.197 1193.65 41.09V40.27H1194.31V40.762C1195.45 40.311 1196.68 40.065 1198 40.065C1203.45 40.065 1207.92 44.534 1207.92 49.987V62H1207.26V49.987C1207.26 44.903 1203.08 40.721 1198 40.721C1196.68 40.721 1195.45 41.008 1194.31 41.5V47.691C1195.08 46.461 1196.44 45.641 1198 45.641C1200.37 45.641 1202.34 47.609 1202.34 49.987V62H1201.69V49.987C1201.69 47.978 1200 46.297 1198 46.297C1195.99 46.297 1194.31 47.978 1194.31 49.987V62H1193.65V41.828C1190.74 43.386 1188.73 46.461 1188.73 49.987V62H1188.07ZM1213.43 40.926H1210.19V40.27H1213.43V33.3H1214.08V40.27H1219V33.3H1219.66V40.27H1222.9V40.926H1219.66V45.846H1222.9V46.502H1219.66V62H1219V46.502H1214.08V62H1213.43V46.502H1210.19V45.846H1213.43V40.926ZM1219 40.926H1214.08V45.846H1219V40.926ZM1235.01 62V33.3H1243.05C1248.26 33.3 1252.48 37.523 1252.48 42.73C1252.48 44.534 1251.99 46.215 1251.08 47.65C1251.99 49.044 1252.48 50.766 1252.48 52.57C1252.48 57.777 1248.26 62 1243.05 62H1235.01ZM1235.67 61.344H1240.59V56.424H1235.67V61.344ZM1235.67 55.768H1240.59V49.372H1235.67V55.768ZM1235.67 48.716H1240.59V46.584H1235.67V48.716ZM1235.67 45.928H1240.59V39.532H1235.67V45.928ZM1235.67 38.876H1240.59V33.956H1235.67V38.876ZM1241.24 61.344H1243.05C1247.89 61.344 1251.82 57.408 1251.82 52.57C1251.82 50.725 1251.25 49.044 1250.31 47.65C1251.25 46.256 1251.82 44.575 1251.82 42.73C1251.82 37.892 1247.89 33.956 1243.05 33.956H1241.24V38.876H1243.05C1245.18 38.876 1246.9 40.598 1246.9 42.73C1246.9 44.862 1245.18 46.584 1243.05 46.584H1241.24V48.716H1243.05C1245.18 48.716 1246.9 50.438 1246.9 52.57C1246.9 54.702 1245.18 56.424 1243.05 56.424H1241.24V61.344ZM1241.24 55.768H1243.05C1244.81 55.768 1246.25 54.333 1246.25 52.57C1246.25 50.807 1244.81 49.372 1243.05 49.372H1241.24V55.768ZM1241.24 45.928H1243.05C1244.81 45.928 1246.25 44.493 1246.25 42.73C1246.25 40.967 1244.81 39.532 1243.05 39.532H1241.24V45.928ZM1266.15 62.492C1259.87 62.492 1254.79 57.408 1254.79 51.135C1254.79 44.862 1259.87 39.778 1266.15 39.778C1272.42 39.778 1277.5 44.862 1277.5 51.135C1277.5 57.408 1272.42 62.492 1266.15 62.492ZM1266.15 61.836C1272.05 61.836 1276.85 57.039 1276.85 51.135C1276.85 45.231 1272.05 40.434 1266.15 40.434C1260.24 40.434 1255.45 45.231 1255.45 51.135C1255.45 57.039 1260.24 61.836 1266.15 61.836ZM1266.15 56.916C1262.95 56.916 1260.37 54.333 1260.37 51.135C1260.37 47.937 1262.95 45.354 1266.15 45.354C1269.35 45.354 1271.93 47.937 1271.93 51.135C1271.93 54.333 1269.35 56.916 1266.15 56.916ZM1266.15 56.26C1268.98 56.26 1271.27 53.964 1271.27 51.135C1271.27 48.306 1268.98 46.01 1266.15 46.01C1263.32 46.01 1261.02 48.306 1261.02 51.135C1261.02 53.964 1263.32 56.26 1266.15 56.26ZM1280.44 62V40.27H1281.1V62H1280.44ZM1286.68 40.27V62H1286.02V40.27H1286.68ZM1286.02 38.138V31.25H1286.68V38.138H1286.02ZM1281.1 31.25V38.138H1280.44V31.25H1281.1ZM1291.51 31.25V62H1290.85V31.25H1291.51ZM1297.09 31.25V62H1296.43V31.25H1297.09ZM1300.03 51.135C1300.03 44.862 1305.12 39.778 1311.39 39.778C1316.39 39.778 1320.62 42.976 1322.13 47.486L1308.81 55.563C1309.59 56.014 1310.45 56.26 1311.39 56.26C1313.44 56.26 1315.2 55.03 1316.02 53.308L1316.64 53.595C1315.74 55.563 1313.73 56.916 1311.39 56.916C1310.2 56.916 1309.1 56.547 1308.19 55.932L1303.77 58.638C1305.69 60.606 1308.4 61.836 1311.39 61.836C1315.66 61.836 1319.39 59.294 1321.11 55.645L1321.68 55.932C1319.88 59.827 1315.94 62.492 1311.39 62.492C1305.12 62.492 1300.03 57.408 1300.03 51.135ZM1300.69 51.135C1300.69 52.324 1300.9 53.431 1301.22 54.497L1305.65 51.791C1305.61 51.586 1305.61 51.34 1305.61 51.135C1305.61 47.937 1308.19 45.354 1311.39 45.354C1312.58 45.354 1313.73 45.723 1314.63 46.338L1319.02 43.673C1317.09 41.664 1314.38 40.434 1311.39 40.434C1305.49 40.434 1300.69 45.231 1300.69 51.135ZM1301.47 55.112C1301.92 56.219 1302.54 57.244 1303.31 58.146L1307.62 55.522C1306.72 54.743 1306.06 53.677 1305.77 52.488L1301.47 55.112ZM1306.27 51.135V51.422L1314.02 46.707C1313.24 46.256 1312.33 46.01 1311.39 46.01C1308.56 46.01 1306.27 48.306 1306.27 51.135ZM1306.35 52.16C1306.59 53.349 1307.29 54.415 1308.23 55.153L1316.43 50.151C1316.19 48.962 1315.53 47.896 1314.59 47.117L1306.35 52.16ZM1315.2 46.789C1316.11 47.568 1316.76 48.593 1317.01 49.823L1321.35 47.158C1320.9 46.051 1320.25 45.067 1319.51 44.165L1315.2 46.789ZM1329.7 62V42.689C1327.49 44.042 1324.78 46.83 1324.78 51.709V62H1324.13V40.27H1324.78V47.732C1325.81 44.903 1327.41 43.304 1329.7 41.951V40.27H1330.36V41.582C1332 40.762 1333.76 40.352 1335.48 40.352V41.008C1333.76 41.008 1331.96 41.459 1330.36 42.32V49.044C1331.3 47.199 1333.27 45.928 1335.48 45.928V46.584C1332.61 46.584 1330.36 48.88 1330.36 51.709V62H1329.7ZM1353.31 39.532V45.928H1356.22C1358.03 45.928 1359.42 44.534 1359.42 42.73C1359.42 40.926 1358.03 39.532 1356.22 39.532H1353.31ZM1353.31 38.876H1356.22C1358.36 38.876 1360.08 40.598 1360.08 42.73C1360.08 44.862 1358.36 46.584 1356.22 46.584H1353.31V51.504H1356.22C1361.14 51.504 1365 47.65 1365 42.73C1365 37.81 1361.14 33.956 1356.22 33.956H1353.31V38.876ZM1347.74 52.16V62H1347.08V33.3H1356.22C1361.47 33.3 1365.65 37.482 1365.65 42.73C1365.65 47.978 1361.47 52.16 1356.22 52.16H1353.31V62H1352.66V52.16H1347.74ZM1347.74 39.532V45.928H1352.66V39.532H1347.74ZM1352.66 33.956H1347.74V38.876H1352.66V33.956ZM1352.66 46.584H1347.74V51.504H1352.66V46.584ZM1369.11 31.25V62H1368.45V31.25H1369.11ZM1374.68 31.25V62H1374.03V31.25H1374.68ZM1394.77 42.115V60.155C1397.52 58.474 1399.69 55.071 1399.69 51.135C1399.69 47.199 1397.52 43.796 1394.77 42.115ZM1388.99 39.778C1390.83 39.778 1392.55 40.229 1394.11 41.008V40.27H1394.77V41.377C1397.06 42.648 1398.83 44.944 1399.69 47.322V40.27H1400.34V62H1399.69V54.907C1398.87 57.244 1397.06 59.663 1394.77 60.934V62H1394.11V61.262C1392.55 62.041 1390.83 62.492 1388.99 62.492C1382.71 62.492 1377.63 57.408 1377.63 51.135C1377.63 44.862 1382.71 39.778 1388.99 39.778ZM1388.99 61.836C1390.83 61.836 1392.6 61.385 1394.11 60.565V53.841C1393.13 55.645 1391.2 56.916 1388.99 56.916C1385.79 56.916 1383.21 54.333 1383.21 51.135C1383.21 47.937 1385.79 45.354 1388.99 45.354C1391.2 45.354 1393.13 46.625 1394.11 48.47V41.746C1392.6 40.926 1390.83 40.434 1388.99 40.434C1383.08 40.434 1378.29 45.231 1378.29 51.135C1378.29 57.039 1383.08 61.836 1388.99 61.836ZM1388.99 56.26C1391.86 56.26 1394.11 53.964 1394.11 51.135C1394.11 48.306 1391.86 46.01 1388.99 46.01C1386.16 46.01 1383.86 48.306 1383.86 51.135C1383.86 53.964 1386.16 56.26 1388.99 56.26ZM1406.58 40.926H1403.34V40.27H1406.58V33.3H1407.23V40.27H1412.15V33.3H1412.81V40.27H1416.05V40.926H1412.81V45.846H1416.05V46.502H1412.81V62H1412.15V46.502H1407.23V62H1406.58V46.502H1403.34V45.846H1406.58V40.926ZM1412.15 40.926H1407.23V45.846H1412.15V40.926ZM1417.39 51.135C1417.39 44.862 1422.47 39.778 1428.75 39.778C1433.75 39.778 1437.97 42.976 1439.49 47.486L1426.16 55.563C1426.94 56.014 1427.8 56.26 1428.75 56.26C1430.8 56.26 1432.56 55.03 1433.38 53.308L1433.99 53.595C1433.09 55.563 1431.08 56.916 1428.75 56.916C1427.56 56.916 1426.45 56.547 1425.55 55.932L1421.12 58.638C1423.05 60.606 1425.75 61.836 1428.75 61.836C1433.01 61.836 1436.74 59.294 1438.46 55.645L1439.04 55.932C1437.23 59.827 1433.3 62.492 1428.75 62.492C1422.47 62.492 1417.39 57.408 1417.39 51.135ZM1418.04 51.135C1418.04 52.324 1418.25 53.431 1418.58 54.497L1423.01 51.791C1422.96 51.586 1422.96 51.34 1422.96 51.135C1422.96 47.937 1425.55 45.354 1428.75 45.354C1429.93 45.354 1431.08 45.723 1431.98 46.338L1436.37 43.673C1434.44 41.664 1431.74 40.434 1428.75 40.434C1422.84 40.434 1418.04 45.231 1418.04 51.135ZM1418.82 55.112C1419.27 56.219 1419.89 57.244 1420.67 58.146L1424.97 55.522C1424.07 54.743 1423.42 53.677 1423.13 52.488L1418.82 55.112ZM1423.62 51.135V51.422L1431.37 46.707C1430.59 46.256 1429.69 46.01 1428.75 46.01C1425.92 46.01 1423.62 48.306 1423.62 51.135ZM1423.7 52.16C1423.95 53.349 1424.65 54.415 1425.59 55.153L1433.79 50.151C1433.54 48.962 1432.89 47.896 1431.94 47.117L1423.7 52.16ZM1432.56 46.789C1433.46 47.568 1434.12 48.593 1434.36 49.823L1438.71 47.158C1438.26 46.051 1437.6 45.067 1436.86 44.165L1432.56 46.789ZM1455.34 61.344H1469.28V62H1448.04L1459.81 39.532H1449.76V38.876H1460.18L1462.76 33.956H1449.76V33.3H1470.06L1458.29 55.768H1469.28V56.424H1457.96L1455.34 61.344ZM1457.55 55.768L1466.04 39.532H1460.54L1452.06 55.768H1457.55ZM1454.6 61.344L1457.22 56.424H1451.73L1449.11 61.344H1454.6ZM1463.5 33.956L1460.91 38.876H1466.41L1468.99 33.956H1463.5ZM1472.59 62V40.27H1473.25V62H1472.59ZM1478.82 40.27V62H1478.17V40.27H1478.82ZM1478.17 38.138V31.25H1478.82V38.138H1478.17ZM1473.25 31.25V38.138H1472.59V31.25H1473.25ZM1502.52 40.27V62H1501.86V55.809C1500.96 58.146 1499.2 60.073 1496.94 61.18V62H1496.29V61.508C1495.14 61.959 1493.91 62.205 1492.6 62.205C1487.14 62.205 1482.67 57.736 1482.67 52.283V40.27H1483.33V52.283C1483.33 57.367 1487.51 61.549 1492.6 61.549C1493.91 61.549 1495.14 61.262 1496.29 60.77V54.579C1495.51 55.809 1494.15 56.629 1492.6 56.629C1490.22 56.629 1488.25 54.661 1488.25 52.283V40.27H1488.91V52.283C1488.91 54.292 1490.59 55.973 1492.6 55.973C1494.6 55.973 1496.29 54.292 1496.29 52.283V40.27H1496.94V60.442C1499.85 58.884 1501.86 55.809 1501.86 52.283V40.27H1502.52ZM1505.72 46.953C1505.72 42.976 1508.92 39.778 1512.9 39.778C1515.85 39.778 1518.39 41.582 1519.5 44.124L1518.88 44.411C1517.9 42.074 1515.56 40.434 1512.9 40.434C1509.29 40.434 1506.38 43.345 1506.38 46.953C1506.38 50.028 1508.47 52.57 1511.34 53.308L1513.14 53.759C1513.84 53.923 1514.33 54.579 1514.33 55.317C1514.33 56.219 1513.63 56.916 1512.73 56.916C1512.03 56.916 1511.46 56.506 1511.21 55.85L1511.83 55.604C1511.95 55.973 1512.28 56.26 1512.73 56.26C1513.26 56.26 1513.67 55.85 1513.67 55.317C1513.67 54.866 1513.43 54.497 1512.98 54.374L1511.13 53.923C1508.02 53.144 1505.72 50.315 1505.72 46.953ZM1506.13 58.187L1506.75 57.9C1507.73 60.237 1510.03 61.836 1512.73 61.836C1516.34 61.836 1519.25 58.925 1519.25 55.317C1519.25 52.242 1517.16 49.7 1514.29 48.962L1512.49 48.511C1511.75 48.306 1511.3 47.691 1511.3 46.953C1511.3 46.051 1511.99 45.354 1512.9 45.354C1513.59 45.354 1514.17 45.805 1514.37 46.42L1513.8 46.666C1513.67 46.297 1513.31 46.01 1512.9 46.01C1512.36 46.01 1511.95 46.42 1511.95 46.953C1511.95 47.404 1512.2 47.773 1512.65 47.896L1514.49 48.347C1517.65 49.126 1519.91 51.955 1519.91 55.317C1519.91 59.294 1516.71 62.492 1512.73 62.492C1509.78 62.492 1507.24 60.729 1506.13 58.187ZM1524.97 40.926H1521.73V40.27H1524.97V33.3H1525.63V40.27H1530.55V33.3H1531.2V40.27H1534.44V40.926H1531.2V45.846H1534.44V46.502H1531.2V62H1530.55V46.502H1525.63V62H1524.97V46.502H1521.73V45.846H1524.97V40.926ZM1530.55 40.926H1525.63V45.846H1530.55V40.926ZM1552.92 42.115V60.155C1555.67 58.474 1557.84 55.071 1557.84 51.135C1557.84 47.199 1555.67 43.796 1552.92 42.115ZM1547.14 39.778C1548.99 39.778 1550.71 40.229 1552.27 41.008V40.27H1552.92V41.377C1555.22 42.648 1556.98 44.944 1557.84 47.322V40.27H1558.5V62H1557.84V54.907C1557.02 57.244 1555.22 59.663 1552.92 60.934V62H1552.27V61.262C1550.71 62.041 1548.99 62.492 1547.14 62.492C1540.87 62.492 1535.78 57.408 1535.78 51.135C1535.78 44.862 1540.87 39.778 1547.14 39.778ZM1547.14 61.836C1548.99 61.836 1550.75 61.385 1552.27 60.565V53.841C1551.28 55.645 1549.36 56.916 1547.14 56.916C1543.94 56.916 1541.36 54.333 1541.36 51.135C1541.36 47.937 1543.94 45.354 1547.14 45.354C1549.36 45.354 1551.28 46.625 1552.27 48.47V41.746C1550.75 40.926 1548.99 40.434 1547.14 40.434C1541.24 40.434 1536.44 45.231 1536.44 51.135C1536.44 57.039 1541.24 61.836 1547.14 61.836ZM1547.14 56.26C1550.01 56.26 1552.27 53.964 1552.27 51.135C1552.27 48.306 1550.01 46.01 1547.14 46.01C1544.31 46.01 1542.02 48.306 1542.02 51.135C1542.02 53.964 1544.31 56.26 1547.14 56.26ZM1562.68 62V40.27H1563.34V46.461C1564.24 44.124 1566 42.197 1568.26 41.09V40.27H1568.91V40.762C1570.06 40.311 1571.29 40.065 1572.6 40.065C1578.05 40.065 1582.52 44.534 1582.52 49.987V62H1581.87V49.987C1581.87 44.903 1577.69 40.721 1572.6 40.721C1571.29 40.721 1570.06 41.008 1568.91 41.5V47.691C1569.69 46.461 1571.04 45.641 1572.6 45.641C1574.98 45.641 1576.95 47.609 1576.95 49.987V62H1576.29V49.987C1576.29 47.978 1574.61 46.297 1572.6 46.297C1570.59 46.297 1568.91 47.978 1568.91 49.987V62H1568.26V41.828C1565.34 43.386 1563.34 46.461 1563.34 49.987V62H1562.68ZM1585.15 51.135C1585.15 44.862 1590.24 39.778 1596.51 39.778C1598.35 39.778 1600.08 40.229 1601.63 41.008V31.25H1602.29V41.377C1604.59 42.648 1606.35 44.944 1607.21 47.322V31.25H1607.87V62H1607.21V54.907C1606.39 57.244 1604.59 59.663 1602.29 60.934V62H1601.63V61.262C1600.08 62.041 1598.35 62.492 1596.51 62.492C1590.24 62.492 1585.15 57.408 1585.15 51.135ZM1585.81 51.135C1585.81 57.039 1590.61 61.836 1596.51 61.836C1598.35 61.836 1600.12 61.385 1601.63 60.565V53.841C1600.65 55.645 1598.72 56.916 1596.51 56.916C1593.31 56.916 1590.73 54.333 1590.73 51.135C1590.73 47.937 1593.31 45.354 1596.51 45.354C1598.72 45.354 1600.65 46.625 1601.63 48.47V41.746C1600.12 40.926 1598.35 40.434 1596.51 40.434C1590.61 40.434 1585.81 45.231 1585.81 51.135ZM1591.38 51.135C1591.38 53.964 1593.68 56.26 1596.51 56.26C1599.38 56.26 1601.63 53.964 1601.63 51.135C1601.63 48.306 1599.38 46.01 1596.51 46.01C1593.68 46.01 1591.38 48.306 1591.38 51.135ZM1602.29 42.115V60.155C1605.04 58.474 1607.21 55.071 1607.21 51.135C1607.21 47.199 1605.04 43.796 1602.29 42.115ZM1619.96 41.746C1619.96 36.826 1623.98 32.849 1629.06 32.849C1633 32.849 1636.32 35.268 1637.59 38.671L1637.01 38.917C1635.83 35.719 1632.71 33.423 1629.06 33.464C1624.39 33.505 1620.57 37.154 1620.61 41.746C1620.66 45.6 1623.28 48.88 1626.93 49.7L1629.88 50.356C1631.36 50.684 1632.46 52.037 1632.46 53.554C1632.46 55.399 1630.91 56.875 1628.94 56.875C1627.26 56.875 1625.86 55.768 1625.49 54.292L1626.11 54.005C1626.35 55.276 1627.5 56.301 1628.94 56.26C1630.54 56.219 1631.77 55.03 1631.81 53.554C1631.85 52.324 1630.95 51.258 1629.68 50.971L1626.81 50.356C1622.79 49.495 1619.96 45.887 1619.96 41.746ZM1620.37 56.629L1620.98 56.342C1622.13 59.581 1625.25 61.877 1628.94 61.836C1633.61 61.795 1637.42 58.146 1637.38 53.554C1637.34 49.7 1634.72 46.42 1631.07 45.6L1628.12 44.944C1626.64 44.616 1625.53 43.263 1625.53 41.746C1625.53 39.901 1627.09 38.425 1629.06 38.425C1630.74 38.425 1632.14 39.491 1632.46 40.967L1631.89 41.254C1631.64 39.983 1630.45 38.999 1629.06 39.04C1627.46 39.081 1626.23 40.27 1626.19 41.746C1626.15 42.976 1627.05 44.042 1628.32 44.329L1631.19 44.944C1635.21 45.805 1638.04 49.413 1638.04 53.554C1638.04 58.474 1634.02 62.451 1628.94 62.451C1624.96 62.451 1621.64 60.032 1620.37 56.629ZM1642.85 40.926H1639.61V40.27H1642.85V33.3H1643.5V40.27H1648.42V33.3H1649.08V40.27H1652.32V40.926H1649.08V45.846H1652.32V46.502H1649.08V62H1648.42V46.502H1643.5V62H1642.85V46.502H1639.61V45.846H1642.85V40.926ZM1648.42 40.926H1643.5V45.846H1648.42V40.926ZM1670.8 42.115V60.155C1673.54 58.474 1675.72 55.071 1675.72 51.135C1675.72 47.199 1673.54 43.796 1670.8 42.115ZM1665.02 39.778C1666.86 39.778 1668.58 40.229 1670.14 41.008V40.27H1670.8V41.377C1673.09 42.648 1674.86 44.944 1675.72 47.322V40.27H1676.37V62H1675.72V54.907C1674.9 57.244 1673.09 59.663 1670.8 60.934V62H1670.14V61.262C1668.58 62.041 1666.86 62.492 1665.02 62.492C1658.74 62.492 1653.66 57.408 1653.66 51.135C1653.66 44.862 1658.74 39.778 1665.02 39.778ZM1665.02 61.836C1666.86 61.836 1668.62 61.385 1670.14 60.565V53.841C1669.16 55.645 1667.23 56.916 1665.02 56.916C1661.82 56.916 1659.24 54.333 1659.24 51.135C1659.24 47.937 1661.82 45.354 1665.02 45.354C1667.23 45.354 1669.16 46.625 1670.14 48.47V41.746C1668.62 40.926 1666.86 40.434 1665.02 40.434C1659.11 40.434 1654.32 45.231 1654.32 51.135C1654.32 57.039 1659.11 61.836 1665.02 61.836ZM1665.02 56.26C1667.89 56.26 1670.14 53.964 1670.14 51.135C1670.14 48.306 1667.89 46.01 1665.02 46.01C1662.19 46.01 1659.89 48.306 1659.89 51.135C1659.89 53.964 1662.19 56.26 1665.02 56.26ZM1682.6 40.926H1679.37V40.27H1682.6V33.3H1683.26V40.27H1688.18V33.3H1688.84V40.27H1692.08V40.926H1688.84V45.846H1692.08V46.502H1688.84V62H1688.18V46.502H1683.26V62H1682.6V46.502H1679.37V45.846H1682.6V40.926ZM1688.18 40.926H1683.26V45.846H1688.18V40.926ZM1693.42 51.135C1693.42 44.862 1698.5 39.778 1704.78 39.778C1709.78 39.778 1714 42.976 1715.52 47.486L1702.19 55.563C1702.97 56.014 1703.83 56.26 1704.78 56.26C1706.83 56.26 1708.59 55.03 1709.41 53.308L1710.02 53.595C1709.12 55.563 1707.11 56.916 1704.78 56.916C1703.59 56.916 1702.48 56.547 1701.58 55.932L1697.15 58.638C1699.08 60.606 1701.78 61.836 1704.78 61.836C1709.04 61.836 1712.77 59.294 1714.49 55.645L1715.07 55.932C1713.26 59.827 1709.33 62.492 1704.78 62.492C1698.5 62.492 1693.42 57.408 1693.42 51.135ZM1694.07 51.135C1694.07 52.324 1694.28 53.431 1694.61 54.497L1699.04 51.791C1698.99 51.586 1698.99 51.34 1698.99 51.135C1698.99 47.937 1701.58 45.354 1704.78 45.354C1705.96 45.354 1707.11 45.723 1708.01 46.338L1712.4 43.673C1710.47 41.664 1707.77 40.434 1704.78 40.434C1698.87 40.434 1694.07 45.231 1694.07 51.135ZM1694.85 55.112C1695.3 56.219 1695.92 57.244 1696.7 58.146L1701 55.522C1700.1 54.743 1699.45 53.677 1699.16 52.488L1694.85 55.112ZM1699.65 51.135V51.422L1707.4 46.707C1706.62 46.256 1705.72 46.01 1704.78 46.01C1701.95 46.01 1699.65 48.306 1699.65 51.135ZM1699.73 52.16C1699.98 53.349 1700.68 54.415 1701.62 55.153L1709.82 50.151C1709.57 48.962 1708.92 47.896 1707.97 47.117L1699.73 52.16ZM1708.59 46.789C1709.49 47.568 1710.15 48.593 1710.39 49.823L1714.74 47.158C1714.29 46.051 1713.63 45.067 1712.89 44.165L1708.59 46.789ZM1744.65 55.522L1742.03 62H1741.37L1734.36 44.698L1731.33 62H1730.67L1733.91 43.55L1730.26 34.448L1725.42 62H1724.77L1729.81 33.3H1730.46L1734.11 42.402L1735.71 33.3H1736.37L1744.65 53.882L1752.93 33.3H1753.59L1755.19 42.361L1758.84 33.3H1759.49L1764.54 62H1763.88L1759.04 34.448L1755.39 43.509L1758.63 62H1757.98L1754.94 44.616L1747.93 62H1747.27L1744.65 55.522ZM1747.6 61.18L1754.74 43.468L1753.14 34.448L1744.98 54.702L1747.6 61.18ZM1744.32 54.702L1736.16 34.448L1734.56 43.55L1741.7 61.18L1744.32 54.702ZM1782.91 42.115V60.155C1785.65 58.474 1787.83 55.071 1787.83 51.135C1787.83 47.199 1785.65 43.796 1782.91 42.115ZM1777.13 39.778C1778.97 39.778 1780.69 40.229 1782.25 41.008V40.27H1782.91V41.377C1785.2 42.648 1786.97 44.944 1787.83 47.322V40.27H1788.48V62H1787.83V54.907C1787.01 57.244 1785.2 59.663 1782.91 60.934V62H1782.25V61.262C1780.69 62.041 1778.97 62.492 1777.13 62.492C1770.85 62.492 1765.77 57.408 1765.77 51.135C1765.77 44.862 1770.85 39.778 1777.13 39.778ZM1777.13 61.836C1778.97 61.836 1780.73 61.385 1782.25 60.565V53.841C1781.27 55.645 1779.34 56.916 1777.13 56.916C1773.93 56.916 1771.34 54.333 1771.34 51.135C1771.34 47.937 1773.93 45.354 1777.13 45.354C1779.34 45.354 1781.27 46.625 1782.25 48.47V41.746C1780.73 40.926 1778.97 40.434 1777.13 40.434C1771.22 40.434 1766.42 45.231 1766.42 51.135C1766.42 57.039 1771.22 61.836 1777.13 61.836ZM1777.13 56.26C1780 56.26 1782.25 53.964 1782.25 51.135C1782.25 48.306 1780 46.01 1777.13 46.01C1774.3 46.01 1772 48.306 1772 51.135C1772 53.964 1774.3 56.26 1777.13 56.26ZM1792.66 62V40.27H1793.32V46.461C1794.22 44.124 1795.98 42.197 1798.24 41.09V40.27H1798.9V40.762C1800.04 40.311 1801.27 40.065 1802.59 40.065C1808.04 40.065 1812.51 44.534 1812.51 49.987V62H1811.85V49.987C1811.85 44.903 1807.67 40.721 1802.59 40.721C1801.27 40.721 1800.04 41.008 1798.9 41.5V47.691C1799.67 46.461 1801.03 45.641 1802.59 45.641C1804.96 45.641 1806.93 47.609 1806.93 49.987V62H1806.28V49.987C1806.28 47.978 1804.59 46.297 1802.59 46.297C1800.58 46.297 1798.9 47.978 1798.9 49.987V62H1798.24V41.828C1795.33 43.386 1793.32 46.461 1793.32 49.987V62H1792.66ZM1832.27 42.115V60.155C1835.02 58.474 1837.19 55.071 1837.19 51.135C1837.19 47.199 1835.02 43.796 1832.27 42.115ZM1826.49 39.778C1828.34 39.778 1830.06 40.229 1831.62 41.008V40.27H1832.27V41.377C1834.57 42.648 1836.33 44.944 1837.19 47.322V40.27H1837.85V62H1837.19V54.907C1836.37 57.244 1834.57 59.663 1832.27 60.934V62H1831.62V61.262C1830.06 62.041 1828.34 62.492 1826.49 62.492C1820.22 62.492 1815.14 57.408 1815.14 51.135C1815.14 44.862 1820.22 39.778 1826.49 39.778ZM1826.49 61.836C1828.34 61.836 1830.1 61.385 1831.62 60.565V53.841C1830.63 55.645 1828.71 56.916 1826.49 56.916C1823.3 56.916 1820.71 54.333 1820.71 51.135C1820.71 47.937 1823.3 45.354 1826.49 45.354C1828.71 45.354 1830.63 46.625 1831.62 48.47V41.746C1830.1 40.926 1828.34 40.434 1826.49 40.434C1820.59 40.434 1815.79 45.231 1815.79 51.135C1815.79 57.039 1820.59 61.836 1826.49 61.836ZM1826.49 56.26C1829.36 56.26 1831.62 53.964 1831.62 51.135C1831.62 48.306 1829.36 46.01 1826.49 46.01C1823.66 46.01 1821.37 48.306 1821.37 51.135C1821.37 53.964 1823.66 56.26 1826.49 56.26ZM1840.84 51.135C1840.84 44.862 1845.93 39.778 1852.2 39.778C1854.04 39.778 1855.77 40.229 1857.32 41.008V40.27H1857.98V41.377C1860.28 42.648 1862.04 44.944 1862.9 47.322V40.27H1863.56V60.155C1863.56 66.428 1858.51 71.512 1852.2 71.512C1848.3 71.512 1844.86 69.503 1842.77 66.51L1843.34 66.182C1845.31 69.011 1848.55 70.856 1852.2 70.856C1858.19 70.856 1862.9 66.1 1862.9 60.155V54.907C1862.08 57.285 1860.24 59.663 1857.9 60.934C1857.49 63.722 1855.15 65.936 1852.2 65.936C1850.35 65.936 1848.67 65.034 1847.61 63.722L1848.18 63.394C1849.08 64.501 1850.6 65.28 1852.2 65.28C1854.66 65.28 1856.67 63.599 1857.2 61.344C1855.68 62.041 1853.96 62.492 1852.2 62.492C1845.93 62.492 1840.84 57.408 1840.84 51.135ZM1841.5 51.135C1841.5 57.039 1846.3 61.836 1852.2 61.836C1854.04 61.836 1855.77 61.385 1857.28 60.565C1857.32 60.278 1857.32 59.745 1857.32 59.212V53.841C1856.34 55.645 1854.41 56.916 1852.2 56.916C1849 56.916 1846.42 54.333 1846.42 51.135C1846.42 47.937 1849 45.354 1852.2 45.354C1854.41 45.354 1856.34 46.625 1857.32 48.47V41.746C1855.81 40.926 1854.04 40.434 1852.2 40.434C1846.3 40.434 1841.5 45.231 1841.5 51.135ZM1847.07 51.135C1847.07 53.964 1849.37 56.26 1852.2 56.26C1855.07 56.26 1857.32 53.964 1857.32 51.135C1857.32 48.306 1855.07 46.01 1852.2 46.01C1849.37 46.01 1847.07 48.306 1847.07 51.135ZM1857.98 42.115V60.155C1860.73 58.474 1862.9 55.071 1862.9 51.135C1862.9 47.199 1860.73 43.796 1857.98 42.115ZM1866.47 51.135C1866.47 44.862 1871.55 39.778 1877.82 39.778C1882.83 39.778 1887.05 42.976 1888.57 47.486L1875.24 55.563C1876.02 56.014 1876.88 56.26 1877.82 56.26C1879.87 56.26 1881.64 55.03 1882.46 53.308L1883.07 53.595C1882.17 55.563 1880.16 56.916 1877.82 56.916C1876.63 56.916 1875.53 56.547 1874.63 55.932L1870.2 58.638C1872.12 60.606 1874.83 61.836 1877.82 61.836C1882.09 61.836 1885.82 59.294 1887.54 55.645L1888.11 55.932C1886.31 59.827 1882.37 62.492 1877.82 62.492C1871.55 62.492 1866.47 57.408 1866.47 51.135ZM1867.12 51.135C1867.12 52.324 1867.33 53.431 1867.66 54.497L1872.08 51.791C1872.04 51.586 1872.04 51.34 1872.04 51.135C1872.04 47.937 1874.63 45.354 1877.82 45.354C1879.01 45.354 1880.16 45.723 1881.06 46.338L1885.45 43.673C1883.52 41.664 1880.82 40.434 1877.82 40.434C1871.92 40.434 1867.12 45.231 1867.12 51.135ZM1867.9 55.112C1868.35 56.219 1868.97 57.244 1869.75 58.146L1874.05 55.522C1873.15 54.743 1872.49 53.677 1872.21 52.488L1867.9 55.112ZM1872.7 51.135V51.422L1880.45 46.707C1879.67 46.256 1878.77 46.01 1877.82 46.01C1874.99 46.01 1872.7 48.306 1872.7 51.135ZM1872.78 52.16C1873.03 53.349 1873.72 54.415 1874.67 55.153L1882.87 50.151C1882.62 48.962 1881.96 47.896 1881.02 47.117L1872.78 52.16ZM1881.64 46.789C1882.54 47.568 1883.19 48.593 1883.44 49.823L1887.79 47.158C1887.34 46.051 1886.68 45.067 1885.94 44.165L1881.64 46.789ZM1890.56 62V40.27H1891.22V45.969C1892.12 43.714 1893.92 41.869 1896.14 40.885V40.27H1896.79V40.639C1897.73 40.311 1898.8 40.106 1899.87 40.106C1902.24 40.106 1904.42 41.008 1906.06 42.484C1907.7 41.008 1909.87 40.106 1912.25 40.106C1917.37 40.106 1921.56 44.288 1921.56 49.413V62H1920.9V49.413C1920.9 44.657 1917 40.762 1912.25 40.762C1910.08 40.762 1908.07 41.582 1906.55 42.935C1907.78 44.206 1908.64 45.805 1909.01 47.609C1909.62 46.461 1910.85 45.682 1912.25 45.682C1914.3 45.682 1915.98 47.363 1915.98 49.413V62H1915.32V49.413C1915.32 47.732 1913.93 46.338 1912.25 46.338C1910.57 46.338 1909.17 47.732 1909.17 49.413V62H1908.52V49.413C1908.52 47.076 1907.57 44.944 1906.06 43.386C1904.54 44.944 1903.6 47.076 1903.6 49.413V62H1902.94V49.413C1902.94 47.732 1901.55 46.338 1899.87 46.338C1898.19 46.338 1896.79 47.732 1896.79 49.413V62H1896.14V41.623C1893.22 43.017 1891.22 46.01 1891.22 49.413V62H1890.56ZM1896.79 41.336V47.322C1897.45 46.338 1898.6 45.682 1899.87 45.682C1901.26 45.682 1902.49 46.461 1903.11 47.609C1903.47 45.805 1904.34 44.206 1905.57 42.935C1904.05 41.582 1902.04 40.762 1899.87 40.762C1898.8 40.762 1897.73 40.967 1896.79 41.336ZM1924.2 51.135C1924.2 44.862 1929.29 39.778 1935.56 39.778C1940.56 39.778 1944.79 42.976 1946.3 47.486L1932.98 55.563C1933.76 56.014 1934.62 56.26 1935.56 56.26C1937.61 56.26 1939.37 55.03 1940.19 53.308L1940.81 53.595C1939.91 55.563 1937.9 56.916 1935.56 56.916C1934.37 56.916 1933.26 56.547 1932.36 55.932L1927.93 58.638C1929.86 60.606 1932.57 61.836 1935.56 61.836C1939.82 61.836 1943.56 59.294 1945.28 55.645L1945.85 55.932C1944.05 59.827 1940.11 62.492 1935.56 62.492C1929.29 62.492 1924.2 57.408 1924.2 51.135ZM1924.86 51.135C1924.86 52.324 1925.06 53.431 1925.39 54.497L1929.82 51.791C1929.78 51.586 1929.78 51.34 1929.78 51.135C1929.78 47.937 1932.36 45.354 1935.56 45.354C1936.75 45.354 1937.9 45.723 1938.8 46.338L1943.19 43.673C1941.26 41.664 1938.55 40.434 1935.56 40.434C1929.66 40.434 1924.86 45.231 1924.86 51.135ZM1925.64 55.112C1926.09 56.219 1926.7 57.244 1927.48 58.146L1931.79 55.522C1930.89 54.743 1930.23 53.677 1929.94 52.488L1925.64 55.112ZM1930.44 51.135V51.422L1938.18 46.707C1937.41 46.256 1936.5 46.01 1935.56 46.01C1932.73 46.01 1930.44 48.306 1930.44 51.135ZM1930.52 52.16C1930.76 53.349 1931.46 54.415 1932.4 55.153L1940.6 50.151C1940.36 48.962 1939.7 47.896 1938.76 47.117L1930.52 52.16ZM1939.37 46.789C1940.28 47.568 1940.93 48.593 1941.18 49.823L1945.52 47.158C1945.07 46.051 1944.42 45.067 1943.68 44.165L1939.37 46.789ZM1948.3 62V40.27H1948.95V46.461C1949.85 44.124 1951.62 42.197 1953.87 41.09V40.27H1954.53V40.762C1955.68 40.311 1956.91 40.065 1958.22 40.065C1963.67 40.065 1968.14 44.534 1968.14 49.987V62H1967.48V49.987C1967.48 44.903 1963.3 40.721 1958.22 40.721C1956.91 40.721 1955.68 41.008 1954.53 41.5V47.691C1955.31 46.461 1956.66 45.641 1958.22 45.641C1960.6 45.641 1962.56 47.609 1962.56 49.987V62H1961.91V49.987C1961.91 47.978 1960.23 46.297 1958.22 46.297C1956.21 46.297 1954.53 47.978 1954.53 49.987V62H1953.87V41.828C1950.96 43.386 1948.95 46.461 1948.95 49.987V62H1948.3ZM1973.65 40.926H1970.41V40.27H1973.65V33.3H1974.3V40.27H1979.22V33.3H1979.88V40.27H1983.12V40.926H1979.88V45.846H1983.12V46.502H1979.88V62H1979.22V46.502H1974.3V62H1973.65V46.502H1970.41V45.846H1973.65V40.926ZM1979.22 40.926H1974.3V45.846H1979.22V40.926Z" fill="white"/>
</g>
<defs>
<clipPath id="clip0_443_857">
<rect width="1940" height="343" fill="white"/>
</clipPath>
</defs>
</svg>
